M48
; DRILL file {KiCad 8.0.8} date 2025-02-15T18:32:47+0000
; FORMAT={-:-/ absolute / metric / decimal}
; #@! TF.CreationDate,2025-02-15T18:32:47+00:00
; #@! TF.GenerationSoftware,Kicad,Pcbnew,8.0.8
; #@! TF.FileFunction,NonPlated,1,2,NPTH
FMAT,2
METRIC
; #@! TA.AperFunction,NonPlated,NPTH,ComponentDrill
T1C1.700
; #@! TA.AperFunction,NonPlated,NPTH,ComponentDrill
T2C3.200
; #@! TA.AperFunction,NonPlated,NPTH,ComponentDrill
T3C4.000
%
G90
G05
T1
X130.651Y-83.344
X130.651Y-102.394
X130.651Y-121.444
X140.811Y-83.344
X140.811Y-102.394
X140.811Y-121.444
X149.701Y-83.344
X149.701Y-102.394
X149.701Y-121.444
X159.861Y-83.344
X159.861Y-102.394
X159.861Y-121.444
X168.751Y-83.344
X168.751Y-102.394
X168.751Y-121.444
X178.911Y-83.344
X178.911Y-102.394
X178.911Y-121.444
T2
X123.0Y-53.5
X123.0Y-134.0
X186.5Y-53.5
X186.5Y-134.0
T3
X135.731Y-83.344
X135.731Y-102.394
X135.731Y-121.444
X154.781Y-83.344
X154.781Y-102.394
X154.781Y-121.444
X173.831Y-83.344
X173.831Y-102.394
X173.831Y-121.444
M30
