M48
; DRILL file {KiCad 8.0.8} date 2025-02-15T18:32:47+0000
; FORMAT={-:-/ absolute / metric / decimal}
; #@! TF.CreationDate,2025-02-15T18:32:47+00:00
; #@! TF.GenerationSoftware,Kicad,Pcbnew,8.0.8
; #@! TF.FileFunction,Plated,1,2,PTH
FMAT,2
METRIC
; #@! TA.AperFunction,Plated,PTH,ViaDrill
T1C0.300
; #@! TA.AperFunction,Plated,PTH,ComponentDrill
T2C0.800
; #@! TA.AperFunction,Plated,PTH,ComponentDrill
T3C0.889
; #@! TA.AperFunction,Plated,PTH,ComponentDrill
T4C1.500
%
G90
G05
T1
X139.0Y-86.0
X142.0Y-74.0
X143.0Y-86.0
X143.0Y-88.5
X143.0Y-104.5
X143.0Y-108.0
X144.0Y-69.5
X144.5Y-109.0
X145.0Y-93.0
X149.0Y-117.0
X151.0Y-72.5
X153.5Y-115.5
X158.0Y-70.5
X158.5Y-69.5
X158.5Y-74.0
X159.5Y-75.8
X160.0Y-112.0
X160.0Y-116.0
X160.5Y-75.8
X161.5Y-86.0
X161.5Y-88.5
X161.5Y-94.0
X161.5Y-98.0
X161.5Y-104.5
X161.5Y-108.0
X161.5Y-113.0
X162.5Y-76.0
X164.0Y-70.5
X166.0Y-76.5
X168.5Y-72.5
X169.5Y-78.0
X169.5Y-113.0
X171.5Y-116.5
X175.0Y-99.5
X177.0Y-91.0
X177.5Y-71.5
X177.5Y-73.5
X179.0Y-94.5
X179.0Y-100.5
X179.0Y-116.0
X180.5Y-75.5
X180.5Y-86.0
X180.5Y-88.5
X180.5Y-94.0
X180.5Y-98.0
X180.5Y-104.5
X180.5Y-108.0
X180.5Y-113.0
X182.5Y-95.5
T2
X145.256Y-79.534
X145.256Y-87.154
X145.256Y-98.584
X145.256Y-106.204
X145.256Y-117.634
X145.256Y-125.254
X164.306Y-79.534
X164.306Y-87.154
X164.306Y-98.584
X164.306Y-106.204
X164.306Y-117.634
X164.306Y-125.254
X183.356Y-79.534
X183.356Y-87.154
X183.356Y-98.584
X183.356Y-106.204
X183.356Y-117.634
X183.356Y-125.254
T3
X147.161Y-51.911
X147.161Y-54.451
X147.161Y-56.991
X147.161Y-59.531
X147.161Y-62.071
X147.161Y-64.611
X147.161Y-67.151
X162.401Y-51.911
X162.401Y-54.451
X162.401Y-56.991
X162.401Y-59.531
X162.401Y-62.071
X162.401Y-64.611
X162.401Y-67.151
T4
X131.921Y-80.804
X131.921Y-99.854
X131.921Y-118.904
X138.271Y-78.264
X138.271Y-97.314
X138.271Y-116.364
X150.971Y-80.804
X150.971Y-99.854
X150.971Y-118.904
X157.321Y-78.264
X157.321Y-97.314
X157.321Y-116.364
X170.021Y-80.804
X170.021Y-99.854
X170.021Y-118.904
X176.371Y-78.264
X176.371Y-97.314
X176.371Y-116.364
M30
