%TF.GenerationSoftware,KiCad,Pcbnew,8.0.8*%
%TF.CreationDate,2025-02-15T18:33:02+00:00*%
%TF.ProjectId,kawaiipad_pcb,6b617761-6969-4706-9164-5f7063622e6b,rev?*%
%TF.SameCoordinates,Original*%
%TF.FileFunction,Soldermask,Bot*%
%TF.FilePolarity,Negative*%
%FSLAX46Y46*%
G04 Gerber Fmt 4.6, Leading zero omitted, Abs format (unit mm)*
G04 Created by KiCad (PCBNEW 8.0.8) date 2025-02-15 18:33:02*
%MOMM*%
%LPD*%
G01*
G04 APERTURE LIST*
%ADD10C,3.200000*%
%ADD11C,1.700000*%
%ADD12C,4.000000*%
%ADD13C,2.200000*%
%ADD14C,1.524000*%
%ADD15R,1.600000X1.600000*%
%ADD16O,1.600000X1.600000*%
G04 APERTURE END LIST*
D10*
%TO.C,REF\u002A\u002A*%
X186500000Y-53500000D03*
%TD*%
%TO.C,REF\u002A\u002A*%
X186500000Y-134000000D03*
%TD*%
%TO.C,REF\u002A\u002A*%
X123000000Y-134000000D03*
%TD*%
%TO.C,REF\u002A\u002A*%
X123000000Y-53500000D03*
%TD*%
D11*
%TO.C,SW7*%
X130651250Y-121443750D03*
D12*
X135731250Y-121443750D03*
D11*
X140811250Y-121443750D03*
D13*
X138271250Y-116363750D03*
X131921250Y-118903750D03*
%TD*%
D14*
%TO.C,U1*%
X147161250Y-51911250D03*
X147161250Y-54451250D03*
X147161250Y-56991250D03*
X147161250Y-59531250D03*
X147161250Y-62071250D03*
X147161250Y-64611250D03*
X147161250Y-67151250D03*
X162401250Y-67151250D03*
X162401250Y-64611250D03*
X162401250Y-62071250D03*
X162401250Y-59531250D03*
X162401250Y-56991250D03*
X162401250Y-54451250D03*
X162401250Y-51911250D03*
%TD*%
D11*
%TO.C,SW8*%
X149701250Y-121443750D03*
D12*
X154781250Y-121443750D03*
D11*
X159861250Y-121443750D03*
D13*
X157321250Y-116363750D03*
X150971250Y-118903750D03*
%TD*%
D11*
%TO.C,SW3*%
X168751250Y-83343750D03*
D12*
X173831250Y-83343750D03*
D11*
X178911250Y-83343750D03*
D13*
X176371250Y-78263750D03*
X170021250Y-80803750D03*
%TD*%
D11*
%TO.C,SW6*%
X168751250Y-102393750D03*
D12*
X173831250Y-102393750D03*
D11*
X178911250Y-102393750D03*
D13*
X176371250Y-97313750D03*
X170021250Y-99853750D03*
%TD*%
D11*
%TO.C,SW4*%
X130651250Y-102393750D03*
D12*
X135731250Y-102393750D03*
D11*
X140811250Y-102393750D03*
D13*
X138271250Y-97313750D03*
X131921250Y-99853750D03*
%TD*%
D11*
%TO.C,SW2*%
X149701250Y-83343750D03*
D12*
X154781250Y-83343750D03*
D11*
X159861250Y-83343750D03*
D13*
X157321250Y-78263750D03*
X150971250Y-80803750D03*
%TD*%
D11*
%TO.C,SW9*%
X168751250Y-121443750D03*
D12*
X173831250Y-121443750D03*
D11*
X178911250Y-121443750D03*
D13*
X176371250Y-116363750D03*
X170021250Y-118903750D03*
%TD*%
D11*
%TO.C,SW1*%
X130651250Y-83343750D03*
D12*
X135731250Y-83343750D03*
D11*
X140811250Y-83343750D03*
D13*
X138271250Y-78263750D03*
X131921250Y-80803750D03*
%TD*%
D11*
%TO.C,SW5*%
X149701250Y-102393750D03*
D12*
X154781250Y-102393750D03*
D11*
X159861250Y-102393750D03*
D13*
X157321250Y-97313750D03*
X150971250Y-99853750D03*
%TD*%
D15*
%TO.C,D9*%
X183356250Y-117633750D03*
D16*
X183356250Y-125253750D03*
%TD*%
D15*
%TO.C,D5*%
X164306250Y-98583750D03*
D16*
X164306250Y-106203750D03*
%TD*%
D15*
%TO.C,D1*%
X145256250Y-79533750D03*
D16*
X145256250Y-87153750D03*
%TD*%
D15*
%TO.C,D4*%
X145256250Y-98583750D03*
D16*
X145256250Y-106203750D03*
%TD*%
D15*
%TO.C,D7*%
X145256250Y-117633750D03*
D16*
X145256250Y-125253750D03*
%TD*%
%TO.C,D3*%
X183356250Y-87153750D03*
D15*
X183356250Y-79533750D03*
%TD*%
%TO.C,D6*%
X183356250Y-98583750D03*
D16*
X183356250Y-106203750D03*
%TD*%
D15*
%TO.C,D8*%
X164306250Y-117633750D03*
D16*
X164306250Y-125253750D03*
%TD*%
D15*
%TO.C,D2*%
X164306250Y-79533750D03*
D16*
X164306250Y-87153750D03*
%TD*%
M02*
