%TF.GenerationSoftware,KiCad,Pcbnew,8.0.8*%
%TF.CreationDate,2025-02-15T18:33:00+00:00*%
%TF.ProjectId,kawaiipad_pcb,6b617761-6969-4706-9164-5f7063622e6b,rev?*%
%TF.SameCoordinates,Original*%
%TF.FileFunction,Copper,L2,Bot*%
%TF.FilePolarity,Positive*%
%FSLAX46Y46*%
G04 Gerber Fmt 4.6, Leading zero omitted, Abs format (unit mm)*
G04 Created by KiCad (PCBNEW 8.0.8) date 2025-02-15 18:33:00*
%MOMM*%
%LPD*%
G01*
G04 APERTURE LIST*
%TA.AperFunction,ComponentPad*%
%ADD10C,2.200000*%
%TD*%
%TA.AperFunction,ComponentPad*%
%ADD11C,1.524000*%
%TD*%
%TA.AperFunction,ComponentPad*%
%ADD12R,1.600000X1.600000*%
%TD*%
%TA.AperFunction,ComponentPad*%
%ADD13O,1.600000X1.600000*%
%TD*%
%TA.AperFunction,ViaPad*%
%ADD14C,0.600000*%
%TD*%
%TA.AperFunction,Conductor*%
%ADD15C,0.400000*%
%TD*%
G04 APERTURE END LIST*
D10*
%TO.P,SW7,1,1*%
%TO.N,Column 0*%
X138271250Y-116363750D03*
%TO.P,SW7,2,2*%
%TO.N,Net-(D7-A)*%
X131921250Y-118903750D03*
%TD*%
D11*
%TO.P,U1,1,GPIO26/ADC0/A0*%
%TO.N,unconnected-(U1-GPIO26{slash}ADC0{slash}A0-Pad1)_1*%
X147161250Y-51911250D03*
%TO.P,U1,2,GPIO27/ADC1/A1*%
%TO.N,unconnected-(U1-GPIO27{slash}ADC1{slash}A1-Pad2)*%
X147161250Y-54451250D03*
%TO.P,U1,3,GPIO28/ADC2/A2*%
%TO.N,unconnected-(U1-GPIO28{slash}ADC2{slash}A2-Pad3)*%
X147161250Y-56991250D03*
%TO.P,U1,4,GPIO29/ADC3/A3*%
%TO.N,LED*%
X147161250Y-59531250D03*
%TO.P,U1,5,GPIO6/SDA*%
%TO.N,Row 0*%
X147161250Y-62071250D03*
%TO.P,U1,6,GPIO7/SCL*%
%TO.N,Row 1*%
X147161250Y-64611250D03*
%TO.P,U1,7,GPIO0/TX*%
%TO.N,Row 2*%
X147161250Y-67151250D03*
%TO.P,U1,8,GPIO1/RX*%
%TO.N,Column 2*%
X162401250Y-67151250D03*
%TO.P,U1,9,GPIO2/SCK*%
%TO.N,Column 1*%
X162401250Y-64611250D03*
%TO.P,U1,10,GPIO4/MISO*%
%TO.N,Column 0*%
X162401250Y-62071250D03*
%TO.P,U1,11,GPIO3/MOSI*%
%TO.N,unconnected-(U1-GPIO3{slash}MOSI-Pad11)_1*%
X162401250Y-59531250D03*
%TO.P,U1,12,3V3*%
%TO.N,unconnected-(U1-3V3-Pad12)*%
X162401250Y-56991250D03*
%TO.P,U1,13,GND*%
%TO.N,GND*%
X162401250Y-54451250D03*
%TO.P,U1,14,VBUS*%
%TO.N,+5V*%
X162401250Y-51911250D03*
%TD*%
D10*
%TO.P,SW8,1,1*%
%TO.N,Column 1*%
X157321250Y-116363750D03*
%TO.P,SW8,2,2*%
%TO.N,Net-(D8-A)*%
X150971250Y-118903750D03*
%TD*%
%TO.P,SW3,1,1*%
%TO.N,Column 2*%
X176371250Y-78263750D03*
%TO.P,SW3,2,2*%
%TO.N,Net-(D3-A)*%
X170021250Y-80803750D03*
%TD*%
%TO.P,SW6,1,1*%
%TO.N,Column 2*%
X176371250Y-97313750D03*
%TO.P,SW6,2,2*%
%TO.N,Net-(D6-A)*%
X170021250Y-99853750D03*
%TD*%
%TO.P,SW4,1,1*%
%TO.N,Column 0*%
X138271250Y-97313750D03*
%TO.P,SW4,2,2*%
%TO.N,Net-(D4-A)*%
X131921250Y-99853750D03*
%TD*%
%TO.P,SW2,1,1*%
%TO.N,Column 1*%
X157321250Y-78263750D03*
%TO.P,SW2,2,2*%
%TO.N,Net-(D2-A)*%
X150971250Y-80803750D03*
%TD*%
%TO.P,SW9,1,1*%
%TO.N,Column 2*%
X176371250Y-116363750D03*
%TO.P,SW9,2,2*%
%TO.N,Net-(D9-A)*%
X170021250Y-118903750D03*
%TD*%
%TO.P,SW1,1,1*%
%TO.N,Column 0*%
X138271250Y-78263750D03*
%TO.P,SW1,2,2*%
%TO.N,Net-(D1-A)*%
X131921250Y-80803750D03*
%TD*%
%TO.P,SW5,1,1*%
%TO.N,Column 1*%
X157321250Y-97313750D03*
%TO.P,SW5,2,2*%
%TO.N,Net-(D5-A)*%
X150971250Y-99853750D03*
%TD*%
D12*
%TO.P,D9,1,K*%
%TO.N,Row 2*%
X183356250Y-117633750D03*
D13*
%TO.P,D9,2,A*%
%TO.N,Net-(D9-A)*%
X183356250Y-125253750D03*
%TD*%
D12*
%TO.P,D5,1,K*%
%TO.N,Row 1*%
X164306250Y-98583750D03*
D13*
%TO.P,D5,2,A*%
%TO.N,Net-(D5-A)*%
X164306250Y-106203750D03*
%TD*%
D12*
%TO.P,D1,1,K*%
%TO.N,Row 0*%
X145256250Y-79533750D03*
D13*
%TO.P,D1,2,A*%
%TO.N,Net-(D1-A)*%
X145256250Y-87153750D03*
%TD*%
D12*
%TO.P,D4,1,K*%
%TO.N,Row 1*%
X145256250Y-98583750D03*
D13*
%TO.P,D4,2,A*%
%TO.N,Net-(D4-A)*%
X145256250Y-106203750D03*
%TD*%
D12*
%TO.P,D7,1,K*%
%TO.N,Row 2*%
X145256250Y-117633750D03*
D13*
%TO.P,D7,2,A*%
%TO.N,Net-(D7-A)*%
X145256250Y-125253750D03*
%TD*%
%TO.P,D3,2,A*%
%TO.N,Net-(D3-A)*%
X183356250Y-87153750D03*
D12*
%TO.P,D3,1,K*%
%TO.N,Row 0*%
X183356250Y-79533750D03*
%TD*%
%TO.P,D6,1,K*%
%TO.N,Row 1*%
X183356250Y-98583750D03*
D13*
%TO.P,D6,2,A*%
%TO.N,Net-(D6-A)*%
X183356250Y-106203750D03*
%TD*%
D12*
%TO.P,D8,1,K*%
%TO.N,Row 2*%
X164306250Y-117633750D03*
D13*
%TO.P,D8,2,A*%
%TO.N,Net-(D8-A)*%
X164306250Y-125253750D03*
%TD*%
D12*
%TO.P,D2,1,K*%
%TO.N,Row 0*%
X164306250Y-79533750D03*
D13*
%TO.P,D2,2,A*%
%TO.N,Net-(D2-A)*%
X164306250Y-87153750D03*
%TD*%
D14*
%TO.N,GND*%
X149000000Y-117000000D03*
X153500000Y-115500000D03*
X171500000Y-116500000D03*
X169500000Y-113000000D03*
X182500000Y-95500000D03*
X179000000Y-100500000D03*
X175000000Y-99500000D03*
%TO.N,+5V*%
X179000000Y-94500000D03*
X177000000Y-91000000D03*
X180500000Y-75500000D03*
X177500000Y-73500000D03*
%TO.N,Net-(D16-DOUT)*%
X160000000Y-112000000D03*
X144500000Y-109000000D03*
%TO.N,Net-(D11-DOUT)*%
X166000000Y-76500000D03*
X164000000Y-70500000D03*
X158500000Y-69500000D03*
X151000000Y-72500000D03*
%TO.N,Net-(D12-DOUT)*%
X168500000Y-72500000D03*
X177500000Y-71500000D03*
%TO.N,Row 1*%
X145000000Y-93000000D03*
X139000000Y-86000000D03*
%TO.N,Row 2*%
X143000000Y-86000000D03*
X143000000Y-104500000D03*
X143000000Y-88500000D03*
X143000000Y-108000000D03*
%TO.N,LED*%
X142000000Y-74000000D03*
X144000000Y-69500000D03*
%TO.N,Net-(D10-DOUT)*%
X158000000Y-70500000D03*
X158500000Y-74000000D03*
%TO.N,Column 0*%
X159500000Y-75800000D03*
%TO.N,Column 1*%
X161500000Y-88500000D03*
X161500000Y-86000000D03*
X161500000Y-113000000D03*
X160500000Y-75800000D03*
X161500000Y-98000000D03*
X160000000Y-116000000D03*
X161500000Y-94000000D03*
X161500000Y-104500000D03*
X161500000Y-108000000D03*
%TO.N,Column 2*%
X180500000Y-98000000D03*
X162500000Y-76000000D03*
X180500000Y-94000000D03*
X180500000Y-104500000D03*
X180500000Y-113000000D03*
X180500000Y-108000000D03*
X180500000Y-86000000D03*
X169500000Y-78000000D03*
X179000000Y-116000000D03*
X180500000Y-88500000D03*
%TD*%
D15*
%TO.N,+5V*%
X179000000Y-93000000D02*
X179000000Y-94500000D01*
X177000000Y-91000000D02*
X179000000Y-93000000D01*
X178500000Y-73500000D02*
X177500000Y-73500000D01*
X180500000Y-75500000D02*
X178500000Y-73500000D01*
%TO.N,Net-(D16-DOUT)*%
X160000000Y-110500000D02*
X160000000Y-112000000D01*
X158500000Y-109000000D02*
X160000000Y-110500000D01*
X144500000Y-109000000D02*
X158500000Y-109000000D01*
%TO.N,Net-(D12-DOUT)*%
X168500000Y-71500000D02*
X168500000Y-72500000D01*
X169500000Y-70500000D02*
X168500000Y-71500000D01*
%TO.N,Net-(D11-DOUT)*%
X164500000Y-75000000D02*
X166000000Y-76500000D01*
X164500000Y-71000000D02*
X164500000Y-75000000D01*
X164000000Y-70500000D02*
X164500000Y-71000000D01*
X157500000Y-68500000D02*
X158500000Y-69500000D01*
X156000000Y-68500000D02*
X157500000Y-68500000D01*
X151000000Y-69500000D02*
X152000000Y-68500000D01*
X152000000Y-68500000D02*
X156000000Y-68500000D01*
X151000000Y-72500000D02*
X151000000Y-69500000D01*
%TO.N,Net-(D12-DOUT)*%
X176500000Y-70500000D02*
X177500000Y-71500000D01*
X169500000Y-70500000D02*
X176500000Y-70500000D01*
%TO.N,Net-(D1-A)*%
X131921250Y-80803750D02*
X132500000Y-81382500D01*
X132500000Y-81382500D02*
X132500000Y-86000000D01*
X133653750Y-87153750D02*
X145256250Y-87153750D01*
X132500000Y-86000000D02*
X133653750Y-87153750D01*
%TO.N,Row 0*%
X145256250Y-79533750D02*
X145256250Y-79243750D01*
X167340000Y-76500000D02*
X180322500Y-76500000D01*
X147161250Y-62071250D02*
X149000000Y-63910000D01*
X164306250Y-79533750D02*
X167340000Y-76500000D01*
X148000000Y-76500000D02*
X149000000Y-76500000D01*
X145256250Y-79243750D02*
X148000000Y-76500000D01*
X180322500Y-76500000D02*
X183356250Y-79533750D01*
X149000000Y-63910000D02*
X149000000Y-76500000D01*
%TO.N,Net-(D2-A)*%
X152653750Y-87153750D02*
X164306250Y-87153750D01*
X151500000Y-86000000D02*
X152653750Y-87153750D01*
X151500000Y-81332500D02*
X151500000Y-86000000D01*
X150971250Y-80803750D02*
X151500000Y-81332500D01*
%TO.N,Net-(D3-A)*%
X171653750Y-87153750D02*
X183356250Y-87153750D01*
X170021250Y-80803750D02*
X170500000Y-81282500D01*
X170500000Y-81282500D02*
X170500000Y-86000000D01*
X170500000Y-86000000D02*
X171653750Y-87153750D01*
%TO.N,Net-(D4-A)*%
X133703750Y-106203750D02*
X145256250Y-106203750D01*
X132500000Y-100432500D02*
X132500000Y-105000000D01*
X132500000Y-105000000D02*
X133703750Y-106203750D01*
X131921250Y-99853750D02*
X132500000Y-100432500D01*
%TO.N,Row 1*%
X161222500Y-95500000D02*
X164306250Y-98583750D01*
X146500000Y-97000000D02*
X148000000Y-95500000D01*
X140500000Y-71272500D02*
X140500000Y-80000000D01*
X146500000Y-94500000D02*
X146500000Y-97000000D01*
X164416250Y-98583750D02*
X167500000Y-95500000D01*
X167500000Y-95500000D02*
X180272500Y-95500000D01*
X164306250Y-98583750D02*
X164416250Y-98583750D01*
X140500000Y-80000000D02*
X139000000Y-81500000D01*
X145256250Y-98583750D02*
X145256250Y-98243750D01*
X148000000Y-95500000D02*
X161222500Y-95500000D01*
X139000000Y-81500000D02*
X139000000Y-86000000D01*
X145256250Y-98243750D02*
X146500000Y-97000000D01*
X145000000Y-93000000D02*
X146500000Y-94500000D01*
X180272500Y-95500000D02*
X183356250Y-98583750D01*
X147161250Y-64611250D02*
X140500000Y-71272500D01*
%TO.N,Net-(D5-A)*%
X151500000Y-105000000D02*
X152703750Y-106203750D01*
X150971250Y-99853750D02*
X151500000Y-100382500D01*
X152703750Y-106203750D02*
X164306250Y-106203750D01*
X151500000Y-100382500D02*
X151500000Y-105000000D01*
%TO.N,Net-(D6-A)*%
X170500000Y-100332500D02*
X170500000Y-105000000D01*
X171703750Y-106203750D02*
X183356250Y-106203750D01*
X170500000Y-105000000D02*
X171703750Y-106203750D01*
X170021250Y-99853750D02*
X170500000Y-100332500D01*
%TO.N,Net-(D7-A)*%
X131921250Y-118903750D02*
X132500000Y-119482500D01*
X132500000Y-119482500D02*
X132500000Y-124000000D01*
X132500000Y-124000000D02*
X133753750Y-125253750D01*
X133753750Y-125253750D02*
X145256250Y-125253750D01*
%TO.N,Row 2*%
X143000000Y-88500000D02*
X143000000Y-104500000D01*
X143000000Y-78500000D02*
X143000000Y-86000000D01*
X143000000Y-112000000D02*
X145500000Y-114500000D01*
X180222500Y-114500000D02*
X183356250Y-117633750D01*
X161172500Y-114500000D02*
X164306250Y-117633750D01*
X147161250Y-74338750D02*
X143000000Y-78500000D01*
X145500000Y-114500000D02*
X148500000Y-114500000D01*
X148500000Y-114500000D02*
X161172500Y-114500000D01*
X143000000Y-108000000D02*
X143000000Y-112000000D01*
X147161250Y-67151250D02*
X147161250Y-74338750D01*
X164306250Y-117633750D02*
X167440000Y-114500000D01*
X145256250Y-117633750D02*
X145366250Y-117633750D01*
X145366250Y-117633750D02*
X148500000Y-114500000D01*
X167440000Y-114500000D02*
X180222500Y-114500000D01*
%TO.N,Net-(D8-A)*%
X151500000Y-124000000D02*
X152753750Y-125253750D01*
X152753750Y-125253750D02*
X164306250Y-125253750D01*
X150971250Y-118903750D02*
X151500000Y-119432500D01*
X151500000Y-119432500D02*
X151500000Y-124000000D01*
%TO.N,Net-(D9-A)*%
X170500000Y-124000000D02*
X171753750Y-125253750D01*
X170021250Y-118903750D02*
X170500000Y-119382500D01*
X170500000Y-119382500D02*
X170500000Y-124000000D01*
X171753750Y-125253750D02*
X183356250Y-125253750D01*
%TO.N,LED*%
X142000000Y-71500000D02*
X142000000Y-74000000D01*
X144000000Y-69500000D02*
X142000000Y-71500000D01*
%TO.N,Net-(D10-DOUT)*%
X158500000Y-71000000D02*
X158500000Y-74000000D01*
X158000000Y-70500000D02*
X158500000Y-71000000D01*
%TO.N,Column 0*%
X129000000Y-97000000D02*
X129000000Y-114500000D01*
X159500000Y-75800000D02*
X159500000Y-64972500D01*
X130863750Y-116363750D02*
X138271250Y-116363750D01*
X129313750Y-97313750D02*
X129000000Y-97000000D01*
X138271250Y-78263750D02*
X130736250Y-78263750D01*
X159500000Y-64972500D02*
X162401250Y-62071250D01*
X129000000Y-80000000D02*
X129000000Y-97000000D01*
X129000000Y-114500000D02*
X130863750Y-116363750D01*
X130736250Y-78263750D02*
X129000000Y-80000000D01*
X138271250Y-97313750D02*
X129313750Y-97313750D01*
%TO.N,Column 1*%
X157321250Y-78263750D02*
X159763750Y-78263750D01*
X160000000Y-116000000D02*
X157685000Y-116000000D01*
X161145000Y-64611250D02*
X162401250Y-64611250D01*
X157685000Y-116000000D02*
X157321250Y-116363750D01*
X159763750Y-78263750D02*
X161500000Y-80000000D01*
X161500000Y-98000000D02*
X161500000Y-99500000D01*
X157321250Y-97313750D02*
X159313750Y-97313750D01*
X160500000Y-65256250D02*
X161145000Y-64611250D01*
X161500000Y-108000000D02*
X161500000Y-113000000D01*
X161500000Y-80000000D02*
X161500000Y-86000000D01*
X161500000Y-88500000D02*
X161500000Y-94000000D01*
X160500000Y-75800000D02*
X160500000Y-65256250D01*
X161500000Y-99500000D02*
X161500000Y-104500000D01*
X159313750Y-97313750D02*
X161500000Y-99500000D01*
%TO.N,Column 2*%
X162401250Y-67151250D02*
X162401250Y-75901250D01*
X180500000Y-80000000D02*
X180500000Y-86000000D01*
X178763750Y-78263750D02*
X180500000Y-80000000D01*
X162401250Y-75901250D02*
X162500000Y-76000000D01*
X180500000Y-108000000D02*
X180500000Y-113000000D01*
X180500000Y-99500000D02*
X180500000Y-104500000D01*
X178313750Y-97313750D02*
X180500000Y-99500000D01*
X176735000Y-116000000D02*
X176371250Y-116363750D01*
X179000000Y-116000000D02*
X176735000Y-116000000D01*
X180500000Y-98000000D02*
X180500000Y-99500000D01*
X176371250Y-97313750D02*
X178313750Y-97313750D01*
X176371250Y-78263750D02*
X178763750Y-78263750D01*
X180500000Y-88500000D02*
X180500000Y-94000000D01*
%TO.N,Row 0*%
X161272500Y-76500000D02*
X164306250Y-79533750D01*
X149000000Y-76500000D02*
X161272500Y-76500000D01*
%TO.N,Column 2*%
X176371250Y-78263750D02*
X169763750Y-78263750D01*
X169763750Y-78263750D02*
X169500000Y-78000000D01*
%TD*%
%TA.AperFunction,Conductor*%
%TO.N,GND*%
G36*
X189942539Y-50025935D02*
G01*
X189988294Y-50078739D01*
X189999500Y-50130250D01*
X189999500Y-137488000D01*
X189979815Y-137555039D01*
X189927011Y-137600794D01*
X189875500Y-137612000D01*
X119687000Y-137612000D01*
X119619961Y-137592315D01*
X119574206Y-137539511D01*
X119563000Y-137488000D01*
X119563000Y-133878711D01*
X121149500Y-133878711D01*
X121149500Y-134121288D01*
X121181161Y-134361785D01*
X121243947Y-134596104D01*
X121336773Y-134820205D01*
X121336776Y-134820212D01*
X121458064Y-135030289D01*
X121458066Y-135030292D01*
X121458067Y-135030293D01*
X121605733Y-135222736D01*
X121605739Y-135222743D01*
X121777256Y-135394260D01*
X121777262Y-135394265D01*
X121969711Y-135541936D01*
X122179788Y-135663224D01*
X122403900Y-135756054D01*
X122638211Y-135818838D01*
X122818586Y-135842584D01*
X122878711Y-135850500D01*
X122878712Y-135850500D01*
X123121289Y-135850500D01*
X123169388Y-135844167D01*
X123361789Y-135818838D01*
X123596100Y-135756054D01*
X123820212Y-135663224D01*
X124030289Y-135541936D01*
X124222738Y-135394265D01*
X124394265Y-135222738D01*
X124541936Y-135030289D01*
X124663224Y-134820212D01*
X124756054Y-134596100D01*
X124818838Y-134361789D01*
X124850500Y-134121288D01*
X124850500Y-133878712D01*
X124850500Y-133878711D01*
X184649500Y-133878711D01*
X184649500Y-134121288D01*
X184681161Y-134361785D01*
X184743947Y-134596104D01*
X184836773Y-134820205D01*
X184836776Y-134820212D01*
X184958064Y-135030289D01*
X184958066Y-135030292D01*
X184958067Y-135030293D01*
X185105733Y-135222736D01*
X185105739Y-135222743D01*
X185277256Y-135394260D01*
X185277262Y-135394265D01*
X185469711Y-135541936D01*
X185679788Y-135663224D01*
X185903900Y-135756054D01*
X186138211Y-135818838D01*
X186318586Y-135842584D01*
X186378711Y-135850500D01*
X186378712Y-135850500D01*
X186621289Y-135850500D01*
X186669388Y-135844167D01*
X186861789Y-135818838D01*
X187096100Y-135756054D01*
X187320212Y-135663224D01*
X187530289Y-135541936D01*
X187722738Y-135394265D01*
X187894265Y-135222738D01*
X188041936Y-135030289D01*
X188163224Y-134820212D01*
X188256054Y-134596100D01*
X188318838Y-134361789D01*
X188350500Y-134121288D01*
X188350500Y-133878712D01*
X188318838Y-133638211D01*
X188256054Y-133403900D01*
X188163224Y-133179788D01*
X188041936Y-132969711D01*
X187894265Y-132777262D01*
X187894260Y-132777256D01*
X187722743Y-132605739D01*
X187722736Y-132605733D01*
X187530293Y-132458067D01*
X187530292Y-132458066D01*
X187530289Y-132458064D01*
X187320212Y-132336776D01*
X187320205Y-132336773D01*
X187096104Y-132243947D01*
X186861785Y-132181161D01*
X186621289Y-132149500D01*
X186621288Y-132149500D01*
X186378712Y-132149500D01*
X186378711Y-132149500D01*
X186138214Y-132181161D01*
X185903895Y-132243947D01*
X185679794Y-132336773D01*
X185679785Y-132336777D01*
X185469706Y-132458067D01*
X185277263Y-132605733D01*
X185277256Y-132605739D01*
X185105739Y-132777256D01*
X185105733Y-132777263D01*
X184958067Y-132969706D01*
X184836777Y-133179785D01*
X184836773Y-133179794D01*
X184743947Y-133403895D01*
X184681161Y-133638214D01*
X184649500Y-133878711D01*
X124850500Y-133878711D01*
X124818838Y-133638211D01*
X124756054Y-133403900D01*
X124663224Y-133179788D01*
X124541936Y-132969711D01*
X124394265Y-132777262D01*
X124394260Y-132777256D01*
X124222743Y-132605739D01*
X124222736Y-132605733D01*
X124030293Y-132458067D01*
X124030292Y-132458066D01*
X124030289Y-132458064D01*
X123820212Y-132336776D01*
X123820205Y-132336773D01*
X123596104Y-132243947D01*
X123361785Y-132181161D01*
X123121289Y-132149500D01*
X123121288Y-132149500D01*
X122878712Y-132149500D01*
X122878711Y-132149500D01*
X122638214Y-132181161D01*
X122403895Y-132243947D01*
X122179794Y-132336773D01*
X122179785Y-132336777D01*
X121969706Y-132458067D01*
X121777263Y-132605733D01*
X121777256Y-132605739D01*
X121605739Y-132777256D01*
X121605733Y-132777263D01*
X121458067Y-132969706D01*
X121336777Y-133179785D01*
X121336773Y-133179794D01*
X121243947Y-133403895D01*
X121181161Y-133638214D01*
X121149500Y-133878711D01*
X119563000Y-133878711D01*
X119563000Y-114568996D01*
X128299499Y-114568996D01*
X128326418Y-114704322D01*
X128326421Y-114704332D01*
X128379222Y-114831807D01*
X128455887Y-114946545D01*
X130417204Y-116907862D01*
X130531942Y-116984527D01*
X130659417Y-117037328D01*
X130659422Y-117037330D01*
X130659426Y-117037330D01*
X130659427Y-117037331D01*
X130794754Y-117064250D01*
X130794757Y-117064250D01*
X130932744Y-117064250D01*
X131739145Y-117064250D01*
X131806184Y-117083935D01*
X131851939Y-117136739D01*
X131861883Y-117205897D01*
X131832858Y-117269453D01*
X131774080Y-117307227D01*
X131748879Y-117311867D01*
X131698413Y-117315838D01*
X131670098Y-117318067D01*
X131425139Y-117376876D01*
X131192390Y-117473283D01*
X130977596Y-117604910D01*
X130977593Y-117604911D01*
X130786026Y-117768526D01*
X130622411Y-117960093D01*
X130622410Y-117960096D01*
X130490783Y-118174890D01*
X130394376Y-118407639D01*
X130335567Y-118652598D01*
X130315801Y-118903750D01*
X130335567Y-119154901D01*
X130394376Y-119399860D01*
X130490783Y-119632609D01*
X130622410Y-119847403D01*
X130622411Y-119847406D01*
X130662289Y-119894097D01*
X130786026Y-120038974D01*
X130900033Y-120136345D01*
X130938226Y-120194852D01*
X130938724Y-120264720D01*
X130901371Y-120323766D01*
X130838024Y-120353244D01*
X130800104Y-120353108D01*
X130737861Y-120343250D01*
X130564639Y-120343250D01*
X130524978Y-120349531D01*
X130393552Y-120370347D01*
X130228802Y-120423878D01*
X130074461Y-120502518D01*
X129994506Y-120560609D01*
X129934322Y-120604336D01*
X129934320Y-120604338D01*
X129934319Y-120604338D01*
X129811838Y-120726819D01*
X129811838Y-120726820D01*
X129811836Y-120726822D01*
X129768109Y-120787006D01*
X129710018Y-120866961D01*
X129631378Y-121021302D01*
X129577847Y-121186052D01*
X129560396Y-121296236D01*
X129550750Y-121357139D01*
X129550750Y-121530361D01*
X129577848Y-121701451D01*
X129631377Y-121866195D01*
X129710018Y-122020538D01*
X129811836Y-122160678D01*
X129934322Y-122283164D01*
X130074462Y-122384982D01*
X130228805Y-122463623D01*
X130393549Y-122517152D01*
X130564639Y-122544250D01*
X130564640Y-122544250D01*
X130737860Y-122544250D01*
X130737861Y-122544250D01*
X130908951Y-122517152D01*
X131073695Y-122463623D01*
X131228038Y-122384982D01*
X131368178Y-122283164D01*
X131490664Y-122160678D01*
X131575182Y-122044348D01*
X131630512Y-122001684D01*
X131700126Y-121995705D01*
X131761921Y-122028311D01*
X131796278Y-122089150D01*
X131799500Y-122117235D01*
X131799500Y-123931006D01*
X131799500Y-124068994D01*
X131799500Y-124068996D01*
X131799499Y-124068996D01*
X131826418Y-124204322D01*
X131826421Y-124204332D01*
X131879222Y-124331807D01*
X131955887Y-124446545D01*
X133307204Y-125797862D01*
X133421940Y-125874526D01*
X133520540Y-125915367D01*
X133549421Y-125927330D01*
X133549422Y-125927330D01*
X133549427Y-125927332D01*
X133576295Y-125932675D01*
X133576301Y-125932676D01*
X133576341Y-125932684D01*
X133666687Y-125950655D01*
X133684756Y-125954250D01*
X133684757Y-125954250D01*
X144094577Y-125954250D01*
X144161616Y-125973935D01*
X144196152Y-126007127D01*
X144256204Y-126092891D01*
X144417108Y-126253795D01*
X144417111Y-126253797D01*
X144603516Y-126384318D01*
X144809754Y-126480489D01*
X145029558Y-126539385D01*
X145191480Y-126553551D01*
X145256248Y-126559218D01*
X145256250Y-126559218D01*
X145256252Y-126559218D01*
X145312923Y-126554259D01*
X145482942Y-126539385D01*
X145702746Y-126480489D01*
X145908984Y-126384318D01*
X146095389Y-126253797D01*
X146256297Y-126092889D01*
X146386818Y-125906484D01*
X146482989Y-125700246D01*
X146541885Y-125480442D01*
X146561718Y-125253750D01*
X146541885Y-125027058D01*
X146482989Y-124807254D01*
X146386818Y-124601016D01*
X146256297Y-124414611D01*
X146256295Y-124414608D01*
X146095391Y-124253704D01*
X145908984Y-124123182D01*
X145908982Y-124123181D01*
X145702747Y-124027011D01*
X145702738Y-124027008D01*
X145482947Y-123968116D01*
X145482943Y-123968115D01*
X145482942Y-123968115D01*
X145482941Y-123968114D01*
X145482936Y-123968114D01*
X145256252Y-123948282D01*
X145256248Y-123948282D01*
X145029563Y-123968114D01*
X145029552Y-123968116D01*
X144809761Y-124027008D01*
X144809752Y-124027011D01*
X144603517Y-124123181D01*
X144603515Y-124123182D01*
X144417108Y-124253704D01*
X144256204Y-124414608D01*
X144196152Y-124500373D01*
X144141575Y-124543998D01*
X144094577Y-124553250D01*
X134095269Y-124553250D01*
X134028230Y-124533565D01*
X134007588Y-124516931D01*
X133236819Y-123746162D01*
X133203334Y-123684839D01*
X133200500Y-123658481D01*
X133200500Y-121296236D01*
X133480750Y-121296236D01*
X133480750Y-121591263D01*
X133505449Y-121778860D01*
X133519257Y-121883743D01*
X133595611Y-122168701D01*
X133595614Y-122168711D01*
X133708504Y-122441250D01*
X133708508Y-122441260D01*
X133856011Y-122696743D01*
X134035602Y-122930790D01*
X134035608Y-122930797D01*
X134244202Y-123139391D01*
X134244209Y-123139397D01*
X134478256Y-123318988D01*
X134733739Y-123466491D01*
X134733740Y-123466491D01*
X134733743Y-123466493D01*
X135006298Y-123579389D01*
X135291257Y-123655743D01*
X135583744Y-123694250D01*
X135583751Y-123694250D01*
X135878749Y-123694250D01*
X135878756Y-123694250D01*
X136171243Y-123655743D01*
X136456202Y-123579389D01*
X136728757Y-123466493D01*
X136984244Y-123318988D01*
X137218292Y-123139396D01*
X137426896Y-122930792D01*
X137606488Y-122696744D01*
X137753993Y-122441257D01*
X137866889Y-122168702D01*
X137943243Y-121883743D01*
X137981750Y-121591256D01*
X137981750Y-121357139D01*
X139710750Y-121357139D01*
X139710750Y-121530361D01*
X139737848Y-121701451D01*
X139791377Y-121866195D01*
X139870018Y-122020538D01*
X139971836Y-122160678D01*
X140094322Y-122283164D01*
X140234462Y-122384982D01*
X140388805Y-122463623D01*
X140553549Y-122517152D01*
X140724639Y-122544250D01*
X140724640Y-122544250D01*
X140897860Y-122544250D01*
X140897861Y-122544250D01*
X141068951Y-122517152D01*
X141233695Y-122463623D01*
X141388038Y-122384982D01*
X141528178Y-122283164D01*
X141650664Y-122160678D01*
X141752482Y-122020538D01*
X141831123Y-121866195D01*
X141884652Y-121701451D01*
X141911750Y-121530361D01*
X141911750Y-121357139D01*
X148600750Y-121357139D01*
X148600750Y-121530361D01*
X148627848Y-121701451D01*
X148681377Y-121866195D01*
X148760018Y-122020538D01*
X148861836Y-122160678D01*
X148984322Y-122283164D01*
X149124462Y-122384982D01*
X149278805Y-122463623D01*
X149443549Y-122517152D01*
X149614639Y-122544250D01*
X149614640Y-122544250D01*
X149787860Y-122544250D01*
X149787861Y-122544250D01*
X149958951Y-122517152D01*
X150123695Y-122463623D01*
X150278038Y-122384982D01*
X150418178Y-122283164D01*
X150540664Y-122160678D01*
X150575182Y-122113167D01*
X150630512Y-122070502D01*
X150700125Y-122064523D01*
X150761920Y-122097129D01*
X150796277Y-122157967D01*
X150799500Y-122186053D01*
X150799500Y-123931006D01*
X150799500Y-124068994D01*
X150799500Y-124068996D01*
X150799499Y-124068996D01*
X150826418Y-124204322D01*
X150826421Y-124204332D01*
X150879222Y-124331807D01*
X150955887Y-124446545D01*
X152307204Y-125797862D01*
X152421940Y-125874526D01*
X152520540Y-125915367D01*
X152549421Y-125927330D01*
X152549422Y-125927330D01*
X152549427Y-125927332D01*
X152576295Y-125932675D01*
X152576301Y-125932676D01*
X152576341Y-125932684D01*
X152666687Y-125950655D01*
X152684756Y-125954250D01*
X152684757Y-125954250D01*
X163144577Y-125954250D01*
X163211616Y-125973935D01*
X163246152Y-126007127D01*
X163306204Y-126092891D01*
X163467108Y-126253795D01*
X163467111Y-126253797D01*
X163653516Y-126384318D01*
X163859754Y-126480489D01*
X164079558Y-126539385D01*
X164241480Y-126553551D01*
X164306248Y-126559218D01*
X164306250Y-126559218D01*
X164306252Y-126559218D01*
X164362923Y-126554259D01*
X164532942Y-126539385D01*
X164752746Y-126480489D01*
X164958984Y-126384318D01*
X165145389Y-126253797D01*
X165306297Y-126092889D01*
X165436818Y-125906484D01*
X165532989Y-125700246D01*
X165591885Y-125480442D01*
X165611718Y-125253750D01*
X165591885Y-125027058D01*
X165532989Y-124807254D01*
X165436818Y-124601016D01*
X165306297Y-124414611D01*
X165306295Y-124414608D01*
X165145391Y-124253704D01*
X164958984Y-124123182D01*
X164958982Y-124123181D01*
X164752747Y-124027011D01*
X164752738Y-124027008D01*
X164532947Y-123968116D01*
X164532943Y-123968115D01*
X164532942Y-123968115D01*
X164532941Y-123968114D01*
X164532936Y-123968114D01*
X164306252Y-123948282D01*
X164306248Y-123948282D01*
X164079563Y-123968114D01*
X164079552Y-123968116D01*
X163859761Y-124027008D01*
X163859752Y-124027011D01*
X163653517Y-124123181D01*
X163653515Y-124123182D01*
X163467108Y-124253704D01*
X163306204Y-124414608D01*
X163246152Y-124500373D01*
X163191575Y-124543998D01*
X163144577Y-124553250D01*
X153095269Y-124553250D01*
X153028230Y-124533565D01*
X153007588Y-124516931D01*
X152236819Y-123746162D01*
X152203334Y-123684839D01*
X152200500Y-123658481D01*
X152200500Y-121296236D01*
X152530750Y-121296236D01*
X152530750Y-121591263D01*
X152555449Y-121778860D01*
X152569257Y-121883743D01*
X152645611Y-122168701D01*
X152645614Y-122168711D01*
X152758504Y-122441250D01*
X152758508Y-122441260D01*
X152906011Y-122696743D01*
X153085602Y-122930790D01*
X153085608Y-122930797D01*
X153294202Y-123139391D01*
X153294209Y-123139397D01*
X153528256Y-123318988D01*
X153783739Y-123466491D01*
X153783740Y-123466491D01*
X153783743Y-123466493D01*
X154056298Y-123579389D01*
X154341257Y-123655743D01*
X154633744Y-123694250D01*
X154633751Y-123694250D01*
X154928749Y-123694250D01*
X154928756Y-123694250D01*
X155221243Y-123655743D01*
X155506202Y-123579389D01*
X155778757Y-123466493D01*
X156034244Y-123318988D01*
X156268292Y-123139396D01*
X156476896Y-122930792D01*
X156656488Y-122696744D01*
X156803993Y-122441257D01*
X156916889Y-122168702D01*
X156993243Y-121883743D01*
X157031750Y-121591256D01*
X157031750Y-121357139D01*
X158760750Y-121357139D01*
X158760750Y-121530361D01*
X158787848Y-121701451D01*
X158841377Y-121866195D01*
X158920018Y-122020538D01*
X159021836Y-122160678D01*
X159144322Y-122283164D01*
X159284462Y-122384982D01*
X159438805Y-122463623D01*
X159603549Y-122517152D01*
X159774639Y-122544250D01*
X159774640Y-122544250D01*
X159947860Y-122544250D01*
X159947861Y-122544250D01*
X160118951Y-122517152D01*
X160283695Y-122463623D01*
X160438038Y-122384982D01*
X160578178Y-122283164D01*
X160700664Y-122160678D01*
X160802482Y-122020538D01*
X160881123Y-121866195D01*
X160934652Y-121701451D01*
X160961750Y-121530361D01*
X160961750Y-121357139D01*
X167650750Y-121357139D01*
X167650750Y-121530361D01*
X167677848Y-121701451D01*
X167731377Y-121866195D01*
X167810018Y-122020538D01*
X167911836Y-122160678D01*
X168034322Y-122283164D01*
X168174462Y-122384982D01*
X168328805Y-122463623D01*
X168493549Y-122517152D01*
X168664639Y-122544250D01*
X168664640Y-122544250D01*
X168837860Y-122544250D01*
X168837861Y-122544250D01*
X169008951Y-122517152D01*
X169173695Y-122463623D01*
X169328038Y-122384982D01*
X169468178Y-122283164D01*
X169587819Y-122163523D01*
X169649142Y-122130038D01*
X169718834Y-122135022D01*
X169774767Y-122176894D01*
X169799184Y-122242358D01*
X169799500Y-122251204D01*
X169799500Y-123931006D01*
X169799500Y-124068994D01*
X169799500Y-124068996D01*
X169799499Y-124068996D01*
X169826418Y-124204322D01*
X169826421Y-124204332D01*
X169879222Y-124331807D01*
X169955887Y-124446545D01*
X171307204Y-125797862D01*
X171421940Y-125874526D01*
X171520540Y-125915367D01*
X171549421Y-125927330D01*
X171549422Y-125927330D01*
X171549427Y-125927332D01*
X171576295Y-125932675D01*
X171576301Y-125932676D01*
X171576341Y-125932684D01*
X171666687Y-125950655D01*
X171684756Y-125954250D01*
X171684757Y-125954250D01*
X182194577Y-125954250D01*
X182261616Y-125973935D01*
X182296152Y-126007127D01*
X182356204Y-126092891D01*
X182517108Y-126253795D01*
X182517111Y-126253797D01*
X182703516Y-126384318D01*
X182909754Y-126480489D01*
X183129558Y-126539385D01*
X183291480Y-126553551D01*
X183356248Y-126559218D01*
X183356250Y-126559218D01*
X183356252Y-126559218D01*
X183412923Y-126554259D01*
X183582942Y-126539385D01*
X183802746Y-126480489D01*
X184008984Y-126384318D01*
X184195389Y-126253797D01*
X184356297Y-126092889D01*
X184486818Y-125906484D01*
X184582989Y-125700246D01*
X184641885Y-125480442D01*
X184661718Y-125253750D01*
X184641885Y-125027058D01*
X184582989Y-124807254D01*
X184486818Y-124601016D01*
X184356297Y-124414611D01*
X184356295Y-124414608D01*
X184195391Y-124253704D01*
X184008984Y-124123182D01*
X184008982Y-124123181D01*
X183802747Y-124027011D01*
X183802738Y-124027008D01*
X183582947Y-123968116D01*
X183582943Y-123968115D01*
X183582942Y-123968115D01*
X183582941Y-123968114D01*
X183582936Y-123968114D01*
X183356252Y-123948282D01*
X183356248Y-123948282D01*
X183129563Y-123968114D01*
X183129552Y-123968116D01*
X182909761Y-124027008D01*
X182909752Y-124027011D01*
X182703517Y-124123181D01*
X182703515Y-124123182D01*
X182517108Y-124253704D01*
X182356204Y-124414608D01*
X182296152Y-124500373D01*
X182241575Y-124543998D01*
X182194577Y-124553250D01*
X172095269Y-124553250D01*
X172028230Y-124533565D01*
X172007588Y-124516931D01*
X171236819Y-123746162D01*
X171203334Y-123684839D01*
X171200500Y-123658481D01*
X171200500Y-121296236D01*
X171580750Y-121296236D01*
X171580750Y-121591263D01*
X171605449Y-121778860D01*
X171619257Y-121883743D01*
X171695611Y-122168701D01*
X171695614Y-122168711D01*
X171808504Y-122441250D01*
X171808508Y-122441260D01*
X171956011Y-122696743D01*
X172135602Y-122930790D01*
X172135608Y-122930797D01*
X172344202Y-123139391D01*
X172344209Y-123139397D01*
X172578256Y-123318988D01*
X172833739Y-123466491D01*
X172833740Y-123466491D01*
X172833743Y-123466493D01*
X173106298Y-123579389D01*
X173391257Y-123655743D01*
X173683744Y-123694250D01*
X173683751Y-123694250D01*
X173978749Y-123694250D01*
X173978756Y-123694250D01*
X174271243Y-123655743D01*
X174556202Y-123579389D01*
X174828757Y-123466493D01*
X175084244Y-123318988D01*
X175318292Y-123139396D01*
X175526896Y-122930792D01*
X175706488Y-122696744D01*
X175853993Y-122441257D01*
X175966889Y-122168702D01*
X176043243Y-121883743D01*
X176081750Y-121591256D01*
X176081750Y-121357139D01*
X177810750Y-121357139D01*
X177810750Y-121530361D01*
X177837848Y-121701451D01*
X177891377Y-121866195D01*
X177970018Y-122020538D01*
X178071836Y-122160678D01*
X178194322Y-122283164D01*
X178334462Y-122384982D01*
X178488805Y-122463623D01*
X178653549Y-122517152D01*
X178824639Y-122544250D01*
X178824640Y-122544250D01*
X178997860Y-122544250D01*
X178997861Y-122544250D01*
X179168951Y-122517152D01*
X179333695Y-122463623D01*
X179488038Y-122384982D01*
X179628178Y-122283164D01*
X179750664Y-122160678D01*
X179852482Y-122020538D01*
X179931123Y-121866195D01*
X179984652Y-121701451D01*
X180011750Y-121530361D01*
X180011750Y-121357139D01*
X179984652Y-121186049D01*
X179931123Y-121021305D01*
X179852482Y-120866962D01*
X179750664Y-120726822D01*
X179628178Y-120604336D01*
X179488038Y-120502518D01*
X179333695Y-120423877D01*
X179168951Y-120370348D01*
X179168949Y-120370347D01*
X179168948Y-120370347D01*
X179037521Y-120349531D01*
X178997861Y-120343250D01*
X178824639Y-120343250D01*
X178784978Y-120349531D01*
X178653552Y-120370347D01*
X178488802Y-120423878D01*
X178334461Y-120502518D01*
X178254506Y-120560609D01*
X178194322Y-120604336D01*
X178194320Y-120604338D01*
X178194319Y-120604338D01*
X178071838Y-120726819D01*
X178071838Y-120726820D01*
X178071836Y-120726822D01*
X178028109Y-120787006D01*
X177970018Y-120866961D01*
X177891378Y-121021302D01*
X177837847Y-121186052D01*
X177820396Y-121296236D01*
X177810750Y-121357139D01*
X176081750Y-121357139D01*
X176081750Y-121296244D01*
X176043243Y-121003757D01*
X175966889Y-120718798D01*
X175853993Y-120446243D01*
X175789314Y-120334216D01*
X175706488Y-120190756D01*
X175526897Y-119956709D01*
X175526891Y-119956702D01*
X175318297Y-119748108D01*
X175318290Y-119748102D01*
X175084243Y-119568511D01*
X174828760Y-119421008D01*
X174828750Y-119421004D01*
X174556211Y-119308114D01*
X174556204Y-119308112D01*
X174556202Y-119308111D01*
X174271243Y-119231757D01*
X174222363Y-119225321D01*
X173978763Y-119193250D01*
X173978756Y-119193250D01*
X173683744Y-119193250D01*
X173683736Y-119193250D01*
X173405335Y-119229903D01*
X173391257Y-119231757D01*
X173106298Y-119308111D01*
X173106288Y-119308114D01*
X172833749Y-119421004D01*
X172833739Y-119421008D01*
X172578256Y-119568511D01*
X172344209Y-119748102D01*
X172344202Y-119748108D01*
X172135608Y-119956702D01*
X172135602Y-119956709D01*
X171956011Y-120190756D01*
X171808508Y-120446239D01*
X171808504Y-120446249D01*
X171695614Y-120718788D01*
X171695611Y-120718798D01*
X171619258Y-121003754D01*
X171619256Y-121003765D01*
X171580750Y-121296236D01*
X171200500Y-121296236D01*
X171200500Y-120033172D01*
X171220185Y-119966133D01*
X171230210Y-119952641D01*
X171300500Y-119870341D01*
X171320086Y-119847409D01*
X171451716Y-119632609D01*
X171548123Y-119399861D01*
X171606933Y-119154898D01*
X171626699Y-118903750D01*
X171606933Y-118652602D01*
X171548123Y-118407639D01*
X171451716Y-118174891D01*
X171451716Y-118174890D01*
X171320089Y-117960096D01*
X171320088Y-117960093D01*
X171178415Y-117794216D01*
X171156474Y-117768526D01*
X171029821Y-117660354D01*
X170964906Y-117604911D01*
X170964903Y-117604910D01*
X170750109Y-117473283D01*
X170517360Y-117376876D01*
X170272401Y-117318067D01*
X170021250Y-117298301D01*
X169770098Y-117318067D01*
X169525139Y-117376876D01*
X169292390Y-117473283D01*
X169077596Y-117604910D01*
X169077593Y-117604911D01*
X168886026Y-117768526D01*
X168722411Y-117960093D01*
X168722410Y-117960096D01*
X168590783Y-118174890D01*
X168494376Y-118407639D01*
X168435567Y-118652598D01*
X168415801Y-118903750D01*
X168435567Y-119154901D01*
X168494376Y-119399860D01*
X168590783Y-119632609D01*
X168722410Y-119847403D01*
X168722411Y-119847406D01*
X168762289Y-119894097D01*
X168886026Y-120038974D01*
X169000033Y-120136345D01*
X169038226Y-120194852D01*
X169038724Y-120264720D01*
X169001371Y-120323766D01*
X168938024Y-120353244D01*
X168900104Y-120353108D01*
X168837861Y-120343250D01*
X168664639Y-120343250D01*
X168624978Y-120349531D01*
X168493552Y-120370347D01*
X168328802Y-120423878D01*
X168174461Y-120502518D01*
X168094506Y-120560609D01*
X168034322Y-120604336D01*
X168034320Y-120604338D01*
X168034319Y-120604338D01*
X167911838Y-120726819D01*
X167911838Y-120726820D01*
X167911836Y-120726822D01*
X167868109Y-120787006D01*
X167810018Y-120866961D01*
X167731378Y-121021302D01*
X167677847Y-121186052D01*
X167660396Y-121296236D01*
X167650750Y-121357139D01*
X160961750Y-121357139D01*
X160934652Y-121186049D01*
X160881123Y-121021305D01*
X160802482Y-120866962D01*
X160700664Y-120726822D01*
X160578178Y-120604336D01*
X160438038Y-120502518D01*
X160283695Y-120423877D01*
X160118951Y-120370348D01*
X160118949Y-120370347D01*
X160118948Y-120370347D01*
X159987521Y-120349531D01*
X159947861Y-120343250D01*
X159774639Y-120343250D01*
X159734978Y-120349531D01*
X159603552Y-120370347D01*
X159438802Y-120423878D01*
X159284461Y-120502518D01*
X159204506Y-120560609D01*
X159144322Y-120604336D01*
X159144320Y-120604338D01*
X159144319Y-120604338D01*
X159021838Y-120726819D01*
X159021838Y-120726820D01*
X159021836Y-120726822D01*
X158978109Y-120787006D01*
X158920018Y-120866961D01*
X158841378Y-121021302D01*
X158787847Y-121186052D01*
X158770396Y-121296236D01*
X158760750Y-121357139D01*
X157031750Y-121357139D01*
X157031750Y-121296244D01*
X156993243Y-121003757D01*
X156916889Y-120718798D01*
X156803993Y-120446243D01*
X156739314Y-120334216D01*
X156656488Y-120190756D01*
X156476897Y-119956709D01*
X156476891Y-119956702D01*
X156268297Y-119748108D01*
X156268290Y-119748102D01*
X156034243Y-119568511D01*
X155778760Y-119421008D01*
X155778750Y-119421004D01*
X155506211Y-119308114D01*
X155506204Y-119308112D01*
X155506202Y-119308111D01*
X155221243Y-119231757D01*
X155172363Y-119225321D01*
X154928763Y-119193250D01*
X154928756Y-119193250D01*
X154633744Y-119193250D01*
X154633736Y-119193250D01*
X154355335Y-119229903D01*
X154341257Y-119231757D01*
X154056298Y-119308111D01*
X154056288Y-119308114D01*
X153783749Y-119421004D01*
X153783739Y-119421008D01*
X153528256Y-119568511D01*
X153294209Y-119748102D01*
X153294202Y-119748108D01*
X153085608Y-119956702D01*
X153085602Y-119956709D01*
X152906011Y-120190756D01*
X152758508Y-120446239D01*
X152758504Y-120446249D01*
X152645614Y-120718788D01*
X152645611Y-120718798D01*
X152569258Y-121003754D01*
X152569256Y-121003765D01*
X152530750Y-121296236D01*
X152200500Y-121296236D01*
X152200500Y-119974629D01*
X152220185Y-119907590D01*
X152230210Y-119894097D01*
X152270086Y-119847409D01*
X152401716Y-119632609D01*
X152498123Y-119399861D01*
X152556933Y-119154898D01*
X152576699Y-118903750D01*
X152556933Y-118652602D01*
X152498123Y-118407639D01*
X152401716Y-118174891D01*
X152401716Y-118174890D01*
X152270089Y-117960096D01*
X152270088Y-117960093D01*
X152128415Y-117794216D01*
X152106474Y-117768526D01*
X151979821Y-117660354D01*
X151914906Y-117604911D01*
X151914903Y-117604910D01*
X151700109Y-117473283D01*
X151467360Y-117376876D01*
X151222401Y-117318067D01*
X150971250Y-117298301D01*
X150720098Y-117318067D01*
X150475139Y-117376876D01*
X150242390Y-117473283D01*
X150027596Y-117604910D01*
X150027593Y-117604911D01*
X149836026Y-117768526D01*
X149672411Y-117960093D01*
X149672410Y-117960096D01*
X149540783Y-118174890D01*
X149444376Y-118407639D01*
X149385567Y-118652598D01*
X149365801Y-118903750D01*
X149385567Y-119154901D01*
X149444376Y-119399860D01*
X149540783Y-119632609D01*
X149672410Y-119847403D01*
X149672411Y-119847406D01*
X149712289Y-119894097D01*
X149836026Y-120038974D01*
X149950033Y-120136345D01*
X149988226Y-120194852D01*
X149988724Y-120264720D01*
X149951371Y-120323766D01*
X149888024Y-120353244D01*
X149850104Y-120353108D01*
X149787861Y-120343250D01*
X149614639Y-120343250D01*
X149574978Y-120349531D01*
X149443552Y-120370347D01*
X149278802Y-120423878D01*
X149124461Y-120502518D01*
X149044506Y-120560609D01*
X148984322Y-120604336D01*
X148984320Y-120604338D01*
X148984319Y-120604338D01*
X148861838Y-120726819D01*
X148861838Y-120726820D01*
X148861836Y-120726822D01*
X148818109Y-120787006D01*
X148760018Y-120866961D01*
X148681378Y-121021302D01*
X148627847Y-121186052D01*
X148610396Y-121296236D01*
X148600750Y-121357139D01*
X141911750Y-121357139D01*
X141884652Y-121186049D01*
X141831123Y-121021305D01*
X141752482Y-120866962D01*
X141650664Y-120726822D01*
X141528178Y-120604336D01*
X141388038Y-120502518D01*
X141233695Y-120423877D01*
X141068951Y-120370348D01*
X141068949Y-120370347D01*
X141068948Y-120370347D01*
X140937521Y-120349531D01*
X140897861Y-120343250D01*
X140724639Y-120343250D01*
X140684978Y-120349531D01*
X140553552Y-120370347D01*
X140388802Y-120423878D01*
X140234461Y-120502518D01*
X140154506Y-120560609D01*
X140094322Y-120604336D01*
X140094320Y-120604338D01*
X140094319Y-120604338D01*
X139971838Y-120726819D01*
X139971838Y-120726820D01*
X139971836Y-120726822D01*
X139928109Y-120787006D01*
X139870018Y-120866961D01*
X139791378Y-121021302D01*
X139737847Y-121186052D01*
X139720396Y-121296236D01*
X139710750Y-121357139D01*
X137981750Y-121357139D01*
X137981750Y-121296244D01*
X137943243Y-121003757D01*
X137866889Y-120718798D01*
X137753993Y-120446243D01*
X137689314Y-120334216D01*
X137606488Y-120190756D01*
X137426897Y-119956709D01*
X137426891Y-119956702D01*
X137218297Y-119748108D01*
X137218290Y-119748102D01*
X136984243Y-119568511D01*
X136728760Y-119421008D01*
X136728750Y-119421004D01*
X136456211Y-119308114D01*
X136456204Y-119308112D01*
X136456202Y-119308111D01*
X136171243Y-119231757D01*
X136122363Y-119225321D01*
X135878763Y-119193250D01*
X135878756Y-119193250D01*
X135583744Y-119193250D01*
X135583736Y-119193250D01*
X135305335Y-119229903D01*
X135291257Y-119231757D01*
X135006298Y-119308111D01*
X135006288Y-119308114D01*
X134733749Y-119421004D01*
X134733739Y-119421008D01*
X134478256Y-119568511D01*
X134244209Y-119748102D01*
X134244202Y-119748108D01*
X134035608Y-119956702D01*
X134035602Y-119956709D01*
X133856011Y-120190756D01*
X133708508Y-120446239D01*
X133708504Y-120446249D01*
X133595614Y-120718788D01*
X133595611Y-120718798D01*
X133519258Y-121003754D01*
X133519256Y-121003765D01*
X133480750Y-121296236D01*
X133200500Y-121296236D01*
X133200500Y-119914342D01*
X133218773Y-119849552D01*
X133351716Y-119632609D01*
X133378266Y-119568511D01*
X133448123Y-119399861D01*
X133506933Y-119154898D01*
X133526699Y-118903750D01*
X133506933Y-118652602D01*
X133448123Y-118407639D01*
X133351716Y-118174891D01*
X133351716Y-118174890D01*
X133220089Y-117960096D01*
X133220088Y-117960093D01*
X133078415Y-117794216D01*
X133056474Y-117768526D01*
X132929821Y-117660354D01*
X132864906Y-117604911D01*
X132864903Y-117604910D01*
X132650109Y-117473283D01*
X132417360Y-117376876D01*
X132172401Y-117318067D01*
X132149068Y-117316230D01*
X132093624Y-117311867D01*
X132028337Y-117286984D01*
X131986867Y-117230753D01*
X131982380Y-117161027D01*
X132016302Y-117099945D01*
X132077863Y-117066899D01*
X132103355Y-117064250D01*
X136753962Y-117064250D01*
X136821001Y-117083935D01*
X136859689Y-117123460D01*
X136972410Y-117307403D01*
X136972411Y-117307406D01*
X137007860Y-117348911D01*
X137136026Y-117498974D01*
X137260061Y-117604910D01*
X137327593Y-117662588D01*
X137327596Y-117662589D01*
X137542390Y-117794216D01*
X137775139Y-117890623D01*
X138020102Y-117949433D01*
X138271250Y-117969199D01*
X138522398Y-117949433D01*
X138767361Y-117890623D01*
X139000109Y-117794216D01*
X139214909Y-117662586D01*
X139406474Y-117498974D01*
X139570086Y-117307409D01*
X139701716Y-117092609D01*
X139798123Y-116859861D01*
X139856933Y-116614898D01*
X139876699Y-116363750D01*
X139856933Y-116112602D01*
X139798123Y-115867639D01*
X139713463Y-115663250D01*
X139701716Y-115634890D01*
X139570089Y-115420096D01*
X139570088Y-115420093D01*
X139510955Y-115350858D01*
X139406474Y-115228526D01*
X139279821Y-115120354D01*
X139214906Y-115064911D01*
X139214903Y-115064910D01*
X139000109Y-114933283D01*
X138767360Y-114836876D01*
X138522401Y-114778067D01*
X138271250Y-114758301D01*
X138020098Y-114778067D01*
X137775139Y-114836876D01*
X137542390Y-114933283D01*
X137327596Y-115064910D01*
X137327593Y-115064911D01*
X137136026Y-115228526D01*
X136972411Y-115420093D01*
X136972410Y-115420096D01*
X136859689Y-115604040D01*
X136807877Y-115650915D01*
X136753962Y-115663250D01*
X131205269Y-115663250D01*
X131138230Y-115643565D01*
X131117588Y-115626931D01*
X129736819Y-114246162D01*
X129703334Y-114184839D01*
X129700500Y-114158481D01*
X129700500Y-107999996D01*
X142194435Y-107999996D01*
X142194435Y-108000003D01*
X142214630Y-108179249D01*
X142214631Y-108179254D01*
X142274212Y-108349525D01*
X142280492Y-108359519D01*
X142299500Y-108425493D01*
X142299500Y-111931006D01*
X142299500Y-112068994D01*
X142299500Y-112068996D01*
X142299499Y-112068996D01*
X142326418Y-112204322D01*
X142326421Y-112204332D01*
X142379222Y-112331807D01*
X142455887Y-112446545D01*
X145053454Y-115044112D01*
X145168192Y-115120777D01*
X145295667Y-115173578D01*
X145295672Y-115173580D01*
X145295676Y-115173580D01*
X145295677Y-115173581D01*
X145431003Y-115200500D01*
X145431006Y-115200500D01*
X145431007Y-115200500D01*
X146509481Y-115200500D01*
X146576520Y-115220185D01*
X146622275Y-115272989D01*
X146632219Y-115342147D01*
X146603194Y-115405703D01*
X146597162Y-115412181D01*
X145712410Y-116296931D01*
X145651087Y-116330416D01*
X145624729Y-116333250D01*
X144408379Y-116333250D01*
X144408373Y-116333251D01*
X144348766Y-116339658D01*
X144213921Y-116389952D01*
X144213914Y-116389956D01*
X144098705Y-116476202D01*
X144098702Y-116476205D01*
X144012456Y-116591414D01*
X144012452Y-116591421D01*
X143962158Y-116726267D01*
X143955751Y-116785866D01*
X143955751Y-116785873D01*
X143955750Y-116785885D01*
X143955750Y-118481620D01*
X143955751Y-118481626D01*
X143962158Y-118541233D01*
X144012452Y-118676078D01*
X144012456Y-118676085D01*
X144098702Y-118791294D01*
X144098705Y-118791297D01*
X144213914Y-118877543D01*
X144213921Y-118877547D01*
X144348767Y-118927841D01*
X144348766Y-118927841D01*
X144355694Y-118928585D01*
X144408377Y-118934250D01*
X146104122Y-118934249D01*
X146163733Y-118927841D01*
X146298581Y-118877546D01*
X146413796Y-118791296D01*
X146500046Y-118676081D01*
X146550341Y-118541233D01*
X146556750Y-118481623D01*
X146556749Y-117485267D01*
X146576433Y-117418229D01*
X146593063Y-117397592D01*
X148753838Y-115236819D01*
X148815161Y-115203334D01*
X148841519Y-115200500D01*
X155940986Y-115200500D01*
X156008025Y-115220185D01*
X156053780Y-115272989D01*
X156063724Y-115342147D01*
X156035276Y-115405032D01*
X156022411Y-115420093D01*
X156022410Y-115420096D01*
X155890783Y-115634890D01*
X155794376Y-115867639D01*
X155735567Y-116112598D01*
X155715801Y-116363750D01*
X155735567Y-116614901D01*
X155794376Y-116859860D01*
X155890783Y-117092609D01*
X156022410Y-117307403D01*
X156022411Y-117307406D01*
X156057860Y-117348911D01*
X156186026Y-117498974D01*
X156310061Y-117604910D01*
X156377593Y-117662588D01*
X156377596Y-117662589D01*
X156592390Y-117794216D01*
X156825139Y-117890623D01*
X157070102Y-117949433D01*
X157321250Y-117969199D01*
X157572398Y-117949433D01*
X157817361Y-117890623D01*
X158050109Y-117794216D01*
X158264909Y-117662586D01*
X158456474Y-117498974D01*
X158620086Y-117307409D01*
X158751716Y-117092609D01*
X158848123Y-116859861D01*
X158863562Y-116795553D01*
X158898353Y-116734961D01*
X158960379Y-116702797D01*
X158984136Y-116700500D01*
X159574506Y-116700500D01*
X159640477Y-116719506D01*
X159650474Y-116725787D01*
X159650475Y-116725787D01*
X159650478Y-116725789D01*
X159820745Y-116785368D01*
X159820750Y-116785369D01*
X159999996Y-116805565D01*
X160000000Y-116805565D01*
X160000004Y-116805565D01*
X160179249Y-116785369D01*
X160179252Y-116785368D01*
X160179255Y-116785368D01*
X160349522Y-116725789D01*
X160502262Y-116629816D01*
X160629816Y-116502262D01*
X160725789Y-116349522D01*
X160785368Y-116179255D01*
X160792878Y-116112602D01*
X160805565Y-116000003D01*
X160805565Y-115999996D01*
X160785369Y-115820750D01*
X160785368Y-115820745D01*
X160725788Y-115650476D01*
X160629815Y-115497737D01*
X160544259Y-115412181D01*
X160510774Y-115350858D01*
X160515758Y-115281166D01*
X160557630Y-115225233D01*
X160623094Y-115200816D01*
X160631940Y-115200500D01*
X160830981Y-115200500D01*
X160898020Y-115220185D01*
X160918662Y-115236819D01*
X162969431Y-117287588D01*
X163002916Y-117348911D01*
X163005750Y-117375269D01*
X163005750Y-118481620D01*
X163005751Y-118481626D01*
X163012158Y-118541233D01*
X163062452Y-118676078D01*
X163062456Y-118676085D01*
X163148702Y-118791294D01*
X163148705Y-118791297D01*
X163263914Y-118877543D01*
X163263921Y-118877547D01*
X163398767Y-118927841D01*
X163398766Y-118927841D01*
X163405694Y-118928585D01*
X163458377Y-118934250D01*
X165154122Y-118934249D01*
X165213733Y-118927841D01*
X165348581Y-118877546D01*
X165463796Y-118791296D01*
X165550046Y-118676081D01*
X165600341Y-118541233D01*
X165606750Y-118481623D01*
X165606749Y-117375267D01*
X165626434Y-117308229D01*
X165643063Y-117287592D01*
X167693838Y-115236819D01*
X167755161Y-115203334D01*
X167781519Y-115200500D01*
X174990986Y-115200500D01*
X175058025Y-115220185D01*
X175103780Y-115272989D01*
X175113724Y-115342147D01*
X175085276Y-115405032D01*
X175072411Y-115420093D01*
X175072410Y-115420096D01*
X174940783Y-115634890D01*
X174844376Y-115867639D01*
X174785567Y-116112598D01*
X174765801Y-116363750D01*
X174785567Y-116614901D01*
X174844376Y-116859860D01*
X174940783Y-117092609D01*
X175072410Y-117307403D01*
X175072411Y-117307406D01*
X175107860Y-117348911D01*
X175236026Y-117498974D01*
X175360061Y-117604910D01*
X175427593Y-117662588D01*
X175427596Y-117662589D01*
X175642390Y-117794216D01*
X175875139Y-117890623D01*
X176120102Y-117949433D01*
X176371250Y-117969199D01*
X176622398Y-117949433D01*
X176867361Y-117890623D01*
X177100109Y-117794216D01*
X177314909Y-117662586D01*
X177506474Y-117498974D01*
X177670086Y-117307409D01*
X177801716Y-117092609D01*
X177898123Y-116859861D01*
X177913562Y-116795553D01*
X177948353Y-116734961D01*
X178010379Y-116702797D01*
X178034136Y-116700500D01*
X178574506Y-116700500D01*
X178640477Y-116719506D01*
X178650474Y-116725787D01*
X178650475Y-116725787D01*
X178650478Y-116725789D01*
X178820745Y-116785368D01*
X178820750Y-116785369D01*
X178999996Y-116805565D01*
X179000000Y-116805565D01*
X179000004Y-116805565D01*
X179179249Y-116785369D01*
X179179252Y-116785368D01*
X179179255Y-116785368D01*
X179349522Y-116725789D01*
X179502262Y-116629816D01*
X179629816Y-116502262D01*
X179725789Y-116349522D01*
X179785368Y-116179255D01*
X179792878Y-116112602D01*
X179805565Y-116000003D01*
X179805565Y-115999996D01*
X179785369Y-115820750D01*
X179785368Y-115820745D01*
X179725788Y-115650476D01*
X179629815Y-115497737D01*
X179544259Y-115412181D01*
X179510774Y-115350858D01*
X179515758Y-115281166D01*
X179557630Y-115225233D01*
X179623094Y-115200816D01*
X179631940Y-115200500D01*
X179880981Y-115200500D01*
X179948020Y-115220185D01*
X179968662Y-115236819D01*
X182019431Y-117287588D01*
X182052916Y-117348911D01*
X182055750Y-117375269D01*
X182055750Y-118481620D01*
X182055751Y-118481626D01*
X182062158Y-118541233D01*
X182112452Y-118676078D01*
X182112456Y-118676085D01*
X182198702Y-118791294D01*
X182198705Y-118791297D01*
X182313914Y-118877543D01*
X182313921Y-118877547D01*
X182448767Y-118927841D01*
X182448766Y-118927841D01*
X182455694Y-118928585D01*
X182508377Y-118934250D01*
X184204122Y-118934249D01*
X184263733Y-118927841D01*
X184398581Y-118877546D01*
X184513796Y-118791296D01*
X184600046Y-118676081D01*
X184650341Y-118541233D01*
X184656750Y-118481623D01*
X184656749Y-116785878D01*
X184650341Y-116726267D01*
X184650162Y-116725788D01*
X184600047Y-116591421D01*
X184600043Y-116591414D01*
X184513797Y-116476205D01*
X184513794Y-116476202D01*
X184398585Y-116389956D01*
X184398578Y-116389952D01*
X184263732Y-116339658D01*
X184263733Y-116339658D01*
X184204133Y-116333251D01*
X184204131Y-116333250D01*
X184204123Y-116333250D01*
X184204115Y-116333250D01*
X183097769Y-116333250D01*
X183030730Y-116313565D01*
X183010088Y-116296931D01*
X180684917Y-113971759D01*
X180651432Y-113910436D01*
X180656416Y-113840744D01*
X180698288Y-113784811D01*
X180731642Y-113767036D01*
X180849522Y-113725789D01*
X181002262Y-113629816D01*
X181129816Y-113502262D01*
X181225789Y-113349522D01*
X181285368Y-113179255D01*
X181305565Y-113000000D01*
X181285368Y-112820745D01*
X181285367Y-112820742D01*
X181285366Y-112820737D01*
X181225790Y-112650479D01*
X181219506Y-112640478D01*
X181200500Y-112574507D01*
X181200500Y-108425493D01*
X181219508Y-108359519D01*
X181225787Y-108349525D01*
X181225786Y-108349525D01*
X181225789Y-108349522D01*
X181285368Y-108179255D01*
X181305565Y-108000000D01*
X181285368Y-107820745D01*
X181225789Y-107650478D01*
X181129816Y-107497738D01*
X181002262Y-107370184D01*
X180945180Y-107334317D01*
X180849523Y-107274211D01*
X180679254Y-107214631D01*
X180679249Y-107214630D01*
X180500004Y-107194435D01*
X180499996Y-107194435D01*
X180320750Y-107214630D01*
X180320745Y-107214631D01*
X180150476Y-107274211D01*
X179997737Y-107370184D01*
X179870184Y-107497737D01*
X179774211Y-107650476D01*
X179714631Y-107820745D01*
X179714630Y-107820750D01*
X179694435Y-107999996D01*
X179694435Y-108000003D01*
X179714630Y-108179249D01*
X179714631Y-108179254D01*
X179774212Y-108349525D01*
X179780492Y-108359519D01*
X179799500Y-108425493D01*
X179799500Y-112574507D01*
X179780494Y-112640478D01*
X179774209Y-112650479D01*
X179714633Y-112820737D01*
X179714630Y-112820750D01*
X179694435Y-112999996D01*
X179694435Y-113000003D01*
X179714630Y-113179249D01*
X179714631Y-113179254D01*
X179774211Y-113349523D01*
X179870184Y-113502262D01*
X179955741Y-113587819D01*
X179989226Y-113649142D01*
X179984242Y-113718834D01*
X179942370Y-113774767D01*
X179876906Y-113799184D01*
X179868060Y-113799500D01*
X167371004Y-113799500D01*
X167235677Y-113826418D01*
X167235667Y-113826421D01*
X167108192Y-113879222D01*
X166993454Y-113955887D01*
X166993453Y-113955888D01*
X164652411Y-116296931D01*
X164591088Y-116330416D01*
X164564730Y-116333250D01*
X164047769Y-116333250D01*
X163980730Y-116313565D01*
X163960088Y-116296931D01*
X161647878Y-113984720D01*
X161614393Y-113923397D01*
X161619377Y-113853705D01*
X161661249Y-113797772D01*
X161694604Y-113779997D01*
X161849522Y-113725789D01*
X162002262Y-113629816D01*
X162129816Y-113502262D01*
X162225789Y-113349522D01*
X162285368Y-113179255D01*
X162305565Y-113000000D01*
X162285368Y-112820745D01*
X162285367Y-112820742D01*
X162285366Y-112820737D01*
X162225790Y-112650479D01*
X162219506Y-112640478D01*
X162200500Y-112574507D01*
X162200500Y-108425493D01*
X162219508Y-108359519D01*
X162225787Y-108349525D01*
X162225786Y-108349525D01*
X162225789Y-108349522D01*
X162285368Y-108179255D01*
X162305565Y-108000000D01*
X162285368Y-107820745D01*
X162225789Y-107650478D01*
X162129816Y-107497738D01*
X162002262Y-107370184D01*
X161945180Y-107334317D01*
X161849523Y-107274211D01*
X161679254Y-107214631D01*
X161679249Y-107214630D01*
X161500004Y-107194435D01*
X161499996Y-107194435D01*
X161320750Y-107214630D01*
X161320745Y-107214631D01*
X161150476Y-107274211D01*
X160997737Y-107370184D01*
X160870184Y-107497737D01*
X160774211Y-107650476D01*
X160714631Y-107820745D01*
X160714630Y-107820750D01*
X160694435Y-107999996D01*
X160694435Y-108000003D01*
X160714630Y-108179249D01*
X160714631Y-108179254D01*
X160774212Y-108349525D01*
X160780492Y-108359519D01*
X160799500Y-108425493D01*
X160799500Y-110026896D01*
X160779815Y-110093935D01*
X160727011Y-110139690D01*
X160657853Y-110149634D01*
X160594297Y-110120609D01*
X160572398Y-110095787D01*
X160544115Y-110053459D01*
X160517552Y-110026896D01*
X160446542Y-109955886D01*
X160120471Y-109629815D01*
X158946546Y-108455888D01*
X158946545Y-108455887D01*
X158831807Y-108379222D01*
X158704332Y-108326421D01*
X158704322Y-108326418D01*
X158568996Y-108299500D01*
X158568994Y-108299500D01*
X158568993Y-108299500D01*
X144925494Y-108299500D01*
X144859523Y-108280494D01*
X144849525Y-108274212D01*
X144679254Y-108214631D01*
X144679249Y-108214630D01*
X144500004Y-108194435D01*
X144499996Y-108194435D01*
X144320750Y-108214630D01*
X144320745Y-108214631D01*
X144150476Y-108274211D01*
X143997737Y-108370184D01*
X143952444Y-108415477D01*
X143891121Y-108448961D01*
X143821429Y-108443976D01*
X143765496Y-108402104D01*
X143741080Y-108336640D01*
X143747723Y-108286840D01*
X143785366Y-108179262D01*
X143785369Y-108179249D01*
X143805565Y-108000003D01*
X143805565Y-107999996D01*
X143785369Y-107820750D01*
X143785368Y-107820745D01*
X143725788Y-107650476D01*
X143629815Y-107497737D01*
X143502262Y-107370184D01*
X143349523Y-107274211D01*
X143179254Y-107214631D01*
X143179249Y-107214630D01*
X143000004Y-107194435D01*
X142999996Y-107194435D01*
X142820750Y-107214630D01*
X142820745Y-107214631D01*
X142650476Y-107274211D01*
X142497737Y-107370184D01*
X142370184Y-107497737D01*
X142274211Y-107650476D01*
X142214631Y-107820745D01*
X142214630Y-107820750D01*
X142194435Y-107999996D01*
X129700500Y-107999996D01*
X129700500Y-103298704D01*
X129720185Y-103231665D01*
X129772989Y-103185910D01*
X129842147Y-103175966D01*
X129905703Y-103204991D01*
X129912181Y-103211023D01*
X129934322Y-103233164D01*
X130074462Y-103334982D01*
X130228805Y-103413623D01*
X130393549Y-103467152D01*
X130564639Y-103494250D01*
X130564640Y-103494250D01*
X130737860Y-103494250D01*
X130737861Y-103494250D01*
X130908951Y-103467152D01*
X131073695Y-103413623D01*
X131228038Y-103334982D01*
X131368178Y-103233164D01*
X131490664Y-103110678D01*
X131575182Y-102994348D01*
X131630512Y-102951684D01*
X131700126Y-102945705D01*
X131761921Y-102978311D01*
X131796278Y-103039150D01*
X131799500Y-103067235D01*
X131799500Y-104931006D01*
X131799500Y-105068994D01*
X131799500Y-105068996D01*
X131799499Y-105068996D01*
X131826418Y-105204322D01*
X131826421Y-105204332D01*
X131879222Y-105331807D01*
X131955887Y-105446545D01*
X133257204Y-106747862D01*
X133371942Y-106824527D01*
X133499417Y-106877328D01*
X133499422Y-106877330D01*
X133499426Y-106877330D01*
X133499427Y-106877331D01*
X133634753Y-106904250D01*
X133634756Y-106904250D01*
X133634757Y-106904250D01*
X144094577Y-106904250D01*
X144161616Y-106923935D01*
X144196152Y-106957127D01*
X144256204Y-107042891D01*
X144417108Y-107203795D01*
X144417111Y-107203797D01*
X144603516Y-107334318D01*
X144809754Y-107430489D01*
X145029558Y-107489385D01*
X145191480Y-107503551D01*
X145256248Y-107509218D01*
X145256250Y-107509218D01*
X145256252Y-107509218D01*
X145312923Y-107504259D01*
X145482942Y-107489385D01*
X145702746Y-107430489D01*
X145908984Y-107334318D01*
X146095389Y-107203797D01*
X146256297Y-107042889D01*
X146386818Y-106856484D01*
X146482989Y-106650246D01*
X146541885Y-106430442D01*
X146561718Y-106203750D01*
X146541885Y-105977058D01*
X146482989Y-105757254D01*
X146386818Y-105551016D01*
X146256297Y-105364611D01*
X146256295Y-105364608D01*
X146095391Y-105203704D01*
X145908984Y-105073182D01*
X145908982Y-105073181D01*
X145702747Y-104977011D01*
X145702738Y-104977008D01*
X145482947Y-104918116D01*
X145482943Y-104918115D01*
X145482942Y-104918115D01*
X145482941Y-104918114D01*
X145482936Y-104918114D01*
X145256252Y-104898282D01*
X145256248Y-104898282D01*
X145029563Y-104918114D01*
X145029552Y-104918116D01*
X144809761Y-104977008D01*
X144809752Y-104977011D01*
X144603517Y-105073181D01*
X144603515Y-105073182D01*
X144417108Y-105203704D01*
X144256204Y-105364608D01*
X144196152Y-105450373D01*
X144141575Y-105493998D01*
X144094577Y-105503250D01*
X143286397Y-105503250D01*
X143219358Y-105483565D01*
X143173603Y-105430761D01*
X143163659Y-105361603D01*
X143192684Y-105298047D01*
X143245443Y-105262208D01*
X143281162Y-105249709D01*
X143349522Y-105225789D01*
X143502262Y-105129816D01*
X143629816Y-105002262D01*
X143725789Y-104849522D01*
X143785368Y-104679255D01*
X143789312Y-104644250D01*
X143805565Y-104500003D01*
X143805565Y-104499996D01*
X143785369Y-104320750D01*
X143785366Y-104320737D01*
X143725790Y-104150479D01*
X143719506Y-104140478D01*
X143700500Y-104074507D01*
X143700500Y-88925493D01*
X143719508Y-88859519D01*
X143725787Y-88849525D01*
X143725786Y-88849525D01*
X143725789Y-88849522D01*
X143785368Y-88679255D01*
X143805565Y-88500000D01*
X143798735Y-88439385D01*
X143785369Y-88320750D01*
X143785368Y-88320745D01*
X143726950Y-88153797D01*
X143725789Y-88150478D01*
X143659024Y-88044222D01*
X143640024Y-87976985D01*
X143660392Y-87910150D01*
X143713660Y-87864936D01*
X143764018Y-87854250D01*
X144094577Y-87854250D01*
X144161616Y-87873935D01*
X144196152Y-87907127D01*
X144256204Y-87992891D01*
X144417108Y-88153795D01*
X144417111Y-88153797D01*
X144603516Y-88284318D01*
X144809754Y-88380489D01*
X145029558Y-88439385D01*
X145191480Y-88453551D01*
X145256248Y-88459218D01*
X145256250Y-88459218D01*
X145256252Y-88459218D01*
X145312923Y-88454259D01*
X145482942Y-88439385D01*
X145702746Y-88380489D01*
X145908984Y-88284318D01*
X146095389Y-88153797D01*
X146256297Y-87992889D01*
X146386818Y-87806484D01*
X146482989Y-87600246D01*
X146541885Y-87380442D01*
X146561718Y-87153750D01*
X146541885Y-86927058D01*
X146482989Y-86707254D01*
X146386818Y-86501016D01*
X146280742Y-86349522D01*
X146256295Y-86314608D01*
X146095391Y-86153704D01*
X145908984Y-86023182D01*
X145908982Y-86023181D01*
X145702747Y-85927011D01*
X145702738Y-85927008D01*
X145482947Y-85868116D01*
X145482943Y-85868115D01*
X145482942Y-85868115D01*
X145482941Y-85868114D01*
X145482936Y-85868114D01*
X145256252Y-85848282D01*
X145256248Y-85848282D01*
X145029563Y-85868114D01*
X145029552Y-85868116D01*
X144809761Y-85927008D01*
X144809752Y-85927011D01*
X144603517Y-86023181D01*
X144603515Y-86023182D01*
X144417108Y-86153704D01*
X144256204Y-86314608D01*
X144196152Y-86400373D01*
X144141575Y-86443998D01*
X144094577Y-86453250D01*
X143864255Y-86453250D01*
X143797216Y-86433565D01*
X143751461Y-86380761D01*
X143741517Y-86311603D01*
X143747214Y-86288295D01*
X143785366Y-86179262D01*
X143785369Y-86179249D01*
X143805565Y-86000003D01*
X143805565Y-85999996D01*
X143785369Y-85820750D01*
X143785366Y-85820737D01*
X143725790Y-85650479D01*
X143719506Y-85640478D01*
X143700500Y-85574507D01*
X143700500Y-78841518D01*
X143720185Y-78774479D01*
X143736815Y-78753841D01*
X143744070Y-78746585D01*
X143805392Y-78713102D01*
X143875084Y-78718086D01*
X143931017Y-78759958D01*
X143955434Y-78825422D01*
X143955750Y-78834268D01*
X143955750Y-80381620D01*
X143955751Y-80381622D01*
X143962158Y-80441233D01*
X144012452Y-80576078D01*
X144012456Y-80576085D01*
X144098702Y-80691294D01*
X144098705Y-80691297D01*
X144213914Y-80777543D01*
X144213921Y-80777547D01*
X144348767Y-80827841D01*
X144348766Y-80827841D01*
X144355694Y-80828585D01*
X144408377Y-80834250D01*
X146104122Y-80834249D01*
X146163733Y-80827841D01*
X146298581Y-80777546D01*
X146413796Y-80691296D01*
X146500046Y-80576081D01*
X146550341Y-80441233D01*
X146556750Y-80381623D01*
X146556749Y-78985267D01*
X146576434Y-78918229D01*
X146593063Y-78897592D01*
X148253837Y-77236819D01*
X148315160Y-77203334D01*
X148341518Y-77200500D01*
X148931007Y-77200500D01*
X155874281Y-77200500D01*
X155941320Y-77220185D01*
X155987075Y-77272989D01*
X155997019Y-77342147D01*
X155980008Y-77389290D01*
X155890783Y-77534890D01*
X155794376Y-77767639D01*
X155735567Y-78012598D01*
X155715801Y-78263750D01*
X155735567Y-78514901D01*
X155794376Y-78759860D01*
X155890783Y-78992609D01*
X156022410Y-79207403D01*
X156022411Y-79207406D01*
X156046171Y-79235225D01*
X156186026Y-79398974D01*
X156310061Y-79504910D01*
X156377593Y-79562588D01*
X156377596Y-79562589D01*
X156592390Y-79694216D01*
X156825139Y-79790623D01*
X157070102Y-79849433D01*
X157321250Y-79869199D01*
X157572398Y-79849433D01*
X157817361Y-79790623D01*
X158050109Y-79694216D01*
X158264909Y-79562586D01*
X158456474Y-79398974D01*
X158620086Y-79207409D01*
X158682293Y-79105897D01*
X158732811Y-79023460D01*
X158784623Y-78976585D01*
X158838538Y-78964250D01*
X159422231Y-78964250D01*
X159489270Y-78983935D01*
X159509912Y-79000569D01*
X160763181Y-80253838D01*
X160796666Y-80315161D01*
X160799500Y-80341519D01*
X160799500Y-82426296D01*
X160779815Y-82493335D01*
X160727011Y-82539090D01*
X160657853Y-82549034D01*
X160594297Y-82520009D01*
X160587819Y-82513977D01*
X160578180Y-82504338D01*
X160578178Y-82504336D01*
X160438038Y-82402518D01*
X160283695Y-82323877D01*
X160118951Y-82270348D01*
X160118949Y-82270347D01*
X160118948Y-82270347D01*
X159987521Y-82249531D01*
X159947861Y-82243250D01*
X159774639Y-82243250D01*
X159734978Y-82249531D01*
X159603552Y-82270347D01*
X159438802Y-82323878D01*
X159284461Y-82402518D01*
X159222354Y-82447642D01*
X159144322Y-82504336D01*
X159144320Y-82504338D01*
X159144319Y-82504338D01*
X159021838Y-82626819D01*
X159021838Y-82626820D01*
X159021836Y-82626822D01*
X159007368Y-82646736D01*
X158920018Y-82766961D01*
X158841378Y-82921302D01*
X158787847Y-83086052D01*
X158770396Y-83196236D01*
X158760750Y-83257139D01*
X158760750Y-83430361D01*
X158787848Y-83601451D01*
X158841377Y-83766195D01*
X158920018Y-83920538D01*
X159021836Y-84060678D01*
X159144322Y-84183164D01*
X159284462Y-84284982D01*
X159438805Y-84363623D01*
X159603549Y-84417152D01*
X159774639Y-84444250D01*
X159774640Y-84444250D01*
X159947860Y-84444250D01*
X159947861Y-84444250D01*
X160118951Y-84417152D01*
X160283695Y-84363623D01*
X160438038Y-84284982D01*
X160578178Y-84183164D01*
X160587819Y-84173523D01*
X160649142Y-84140038D01*
X160718834Y-84145022D01*
X160774767Y-84186894D01*
X160799184Y-84252358D01*
X160799500Y-84261204D01*
X160799500Y-85574507D01*
X160780494Y-85640478D01*
X160774209Y-85650479D01*
X160714633Y-85820737D01*
X160714630Y-85820750D01*
X160694435Y-85999996D01*
X160694435Y-86000003D01*
X160714630Y-86179249D01*
X160714633Y-86179262D01*
X160752786Y-86288295D01*
X160756348Y-86358074D01*
X160721620Y-86418701D01*
X160659626Y-86450929D01*
X160635745Y-86453250D01*
X152995269Y-86453250D01*
X152928230Y-86433565D01*
X152907588Y-86416931D01*
X152236819Y-85746162D01*
X152203334Y-85684839D01*
X152200500Y-85658481D01*
X152200500Y-83196236D01*
X152530750Y-83196236D01*
X152530750Y-83491263D01*
X152555449Y-83678860D01*
X152569257Y-83783743D01*
X152645611Y-84068701D01*
X152645614Y-84068711D01*
X152758504Y-84341250D01*
X152758508Y-84341260D01*
X152906011Y-84596743D01*
X153085602Y-84830790D01*
X153085608Y-84830797D01*
X153294202Y-85039391D01*
X153294209Y-85039397D01*
X153528256Y-85218988D01*
X153783739Y-85366491D01*
X153783740Y-85366491D01*
X153783743Y-85366493D01*
X154056298Y-85479389D01*
X154341257Y-85555743D01*
X154633744Y-85594250D01*
X154633751Y-85594250D01*
X154928749Y-85594250D01*
X154928756Y-85594250D01*
X155221243Y-85555743D01*
X155506202Y-85479389D01*
X155778757Y-85366493D01*
X156034244Y-85218988D01*
X156268292Y-85039396D01*
X156476896Y-84830792D01*
X156656488Y-84596744D01*
X156803993Y-84341257D01*
X156916889Y-84068702D01*
X156993243Y-83783743D01*
X157031750Y-83491256D01*
X157031750Y-83196244D01*
X156993243Y-82903757D01*
X156916889Y-82618798D01*
X156803993Y-82346243D01*
X156739314Y-82234216D01*
X156656488Y-82090756D01*
X156476897Y-81856709D01*
X156476891Y-81856702D01*
X156268297Y-81648108D01*
X156268290Y-81648102D01*
X156034243Y-81468511D01*
X155778760Y-81321008D01*
X155778750Y-81321004D01*
X155506211Y-81208114D01*
X155506204Y-81208112D01*
X155506202Y-81208111D01*
X155221243Y-81131757D01*
X155172363Y-81125321D01*
X154928763Y-81093250D01*
X154928756Y-81093250D01*
X154633744Y-81093250D01*
X154633736Y-81093250D01*
X154355335Y-81129903D01*
X154341257Y-81131757D01*
X154205290Y-81168189D01*
X154056298Y-81208111D01*
X154056288Y-81208114D01*
X153783749Y-81321004D01*
X153783739Y-81321008D01*
X153528256Y-81468511D01*
X153294209Y-81648102D01*
X153294202Y-81648108D01*
X153085608Y-81856702D01*
X153085602Y-81856709D01*
X152906011Y-82090756D01*
X152758508Y-82346239D01*
X152758504Y-82346249D01*
X152645614Y-82618788D01*
X152645611Y-82618798D01*
X152621824Y-82707575D01*
X152569258Y-82903754D01*
X152569256Y-82903765D01*
X152530750Y-83196236D01*
X152200500Y-83196236D01*
X152200500Y-81874629D01*
X152220185Y-81807590D01*
X152230210Y-81794097D01*
X152233576Y-81790156D01*
X152270086Y-81747409D01*
X152401716Y-81532609D01*
X152498123Y-81299861D01*
X152556933Y-81054898D01*
X152576699Y-80803750D01*
X152556933Y-80552602D01*
X152498123Y-80307639D01*
X152467725Y-80234251D01*
X152401716Y-80074890D01*
X152270089Y-79860096D01*
X152270088Y-79860093D01*
X152210755Y-79790623D01*
X152106474Y-79668526D01*
X151971742Y-79553454D01*
X151914906Y-79504911D01*
X151914903Y-79504910D01*
X151700109Y-79373283D01*
X151467360Y-79276876D01*
X151222401Y-79218067D01*
X150971250Y-79198301D01*
X150720098Y-79218067D01*
X150475139Y-79276876D01*
X150242390Y-79373283D01*
X150027596Y-79504910D01*
X150027593Y-79504911D01*
X149836026Y-79668526D01*
X149672411Y-79860093D01*
X149672410Y-79860096D01*
X149540783Y-80074890D01*
X149444376Y-80307639D01*
X149385567Y-80552598D01*
X149365801Y-80803750D01*
X149385567Y-81054901D01*
X149444376Y-81299860D01*
X149540783Y-81532609D01*
X149672410Y-81747403D01*
X149672411Y-81747406D01*
X149695534Y-81774479D01*
X149836026Y-81938974D01*
X149950033Y-82036345D01*
X149988226Y-82094852D01*
X149988724Y-82164720D01*
X149951371Y-82223766D01*
X149888024Y-82253244D01*
X149850104Y-82253108D01*
X149787861Y-82243250D01*
X149614639Y-82243250D01*
X149574978Y-82249531D01*
X149443552Y-82270347D01*
X149278802Y-82323878D01*
X149124461Y-82402518D01*
X149062354Y-82447642D01*
X148984322Y-82504336D01*
X148984320Y-82504338D01*
X148984319Y-82504338D01*
X148861838Y-82626819D01*
X148861838Y-82626820D01*
X148861836Y-82626822D01*
X148847368Y-82646736D01*
X148760018Y-82766961D01*
X148681378Y-82921302D01*
X148627847Y-83086052D01*
X148610396Y-83196236D01*
X148600750Y-83257139D01*
X148600750Y-83430361D01*
X148627848Y-83601451D01*
X148681377Y-83766195D01*
X148760018Y-83920538D01*
X148861836Y-84060678D01*
X148984322Y-84183164D01*
X149124462Y-84284982D01*
X149278805Y-84363623D01*
X149443549Y-84417152D01*
X149614639Y-84444250D01*
X149614640Y-84444250D01*
X149787860Y-84444250D01*
X149787861Y-84444250D01*
X149958951Y-84417152D01*
X150123695Y-84363623D01*
X150278038Y-84284982D01*
X150418178Y-84183164D01*
X150540664Y-84060678D01*
X150575182Y-84013167D01*
X150630512Y-83970502D01*
X150700125Y-83964523D01*
X150761920Y-83997129D01*
X150796277Y-84057967D01*
X150799500Y-84086053D01*
X150799500Y-85931006D01*
X150799500Y-86068994D01*
X150799500Y-86068996D01*
X150799499Y-86068996D01*
X150826418Y-86204322D01*
X150826421Y-86204332D01*
X150879222Y-86331807D01*
X150955887Y-86446545D01*
X152207204Y-87697862D01*
X152321942Y-87774527D01*
X152449417Y-87827328D01*
X152449422Y-87827330D01*
X152449426Y-87827330D01*
X152449427Y-87827331D01*
X152584753Y-87854250D01*
X152584756Y-87854250D01*
X152584757Y-87854250D01*
X160735982Y-87854250D01*
X160803021Y-87873935D01*
X160848776Y-87926739D01*
X160858720Y-87995897D01*
X160840976Y-88044222D01*
X160774211Y-88150476D01*
X160714631Y-88320745D01*
X160714630Y-88320750D01*
X160694435Y-88499996D01*
X160694435Y-88500003D01*
X160714630Y-88679249D01*
X160714631Y-88679254D01*
X160774212Y-88849525D01*
X160780492Y-88859519D01*
X160799500Y-88925493D01*
X160799500Y-93574507D01*
X160780494Y-93640478D01*
X160774209Y-93650479D01*
X160714633Y-93820737D01*
X160714630Y-93820750D01*
X160694435Y-93999996D01*
X160694435Y-94000003D01*
X160714630Y-94179249D01*
X160714631Y-94179254D01*
X160774211Y-94349523D01*
X160870184Y-94502262D01*
X160955741Y-94587819D01*
X160989226Y-94649142D01*
X160984242Y-94718834D01*
X160942370Y-94774767D01*
X160876906Y-94799184D01*
X160868060Y-94799500D01*
X147931003Y-94799500D01*
X147822590Y-94821065D01*
X147822589Y-94821065D01*
X147809131Y-94823742D01*
X147795673Y-94826419D01*
X147792380Y-94827783D01*
X147742866Y-94848292D01*
X147742864Y-94848293D01*
X147742863Y-94848292D01*
X147668191Y-94879223D01*
X147567445Y-94946539D01*
X147567446Y-94946540D01*
X147553458Y-94955886D01*
X147412181Y-95097163D01*
X147350858Y-95130647D01*
X147281166Y-95125663D01*
X147225233Y-95083791D01*
X147200816Y-95018327D01*
X147200500Y-95009481D01*
X147200500Y-94431004D01*
X147173581Y-94295677D01*
X147173580Y-94295676D01*
X147173580Y-94295672D01*
X147125359Y-94179255D01*
X147120778Y-94168195D01*
X147120771Y-94168182D01*
X147044115Y-94053459D01*
X147044114Y-94053458D01*
X146946542Y-93955886D01*
X145791369Y-92800712D01*
X145762008Y-92753986D01*
X145725788Y-92650476D01*
X145686582Y-92588080D01*
X145629816Y-92497738D01*
X145502262Y-92370184D01*
X145349523Y-92274211D01*
X145179254Y-92214631D01*
X145179249Y-92214630D01*
X145000004Y-92194435D01*
X144999996Y-92194435D01*
X144820750Y-92214630D01*
X144820745Y-92214631D01*
X144650476Y-92274211D01*
X144497737Y-92370184D01*
X144370184Y-92497737D01*
X144274211Y-92650476D01*
X144214631Y-92820745D01*
X144214630Y-92820750D01*
X144194435Y-92999996D01*
X144194435Y-93000003D01*
X144214630Y-93179249D01*
X144214631Y-93179254D01*
X144274211Y-93349523D01*
X144370184Y-93502262D01*
X144497738Y-93629816D01*
X144650478Y-93725789D01*
X144753986Y-93762008D01*
X144800712Y-93791369D01*
X145763181Y-94753837D01*
X145796666Y-94815160D01*
X145799500Y-94841518D01*
X145799500Y-96658480D01*
X145779815Y-96725519D01*
X145763181Y-96746161D01*
X145262411Y-97246931D01*
X145201088Y-97280416D01*
X145174730Y-97283250D01*
X144408379Y-97283250D01*
X144408373Y-97283251D01*
X144348766Y-97289658D01*
X144213921Y-97339952D01*
X144213914Y-97339956D01*
X144098705Y-97426202D01*
X144098702Y-97426205D01*
X144012456Y-97541414D01*
X144012452Y-97541421D01*
X143962158Y-97676267D01*
X143958121Y-97713822D01*
X143955751Y-97735873D01*
X143955750Y-97735885D01*
X143955750Y-99431620D01*
X143955751Y-99431626D01*
X143962158Y-99491233D01*
X144012452Y-99626078D01*
X144012456Y-99626085D01*
X144098702Y-99741294D01*
X144098705Y-99741297D01*
X144213914Y-99827543D01*
X144213921Y-99827547D01*
X144348767Y-99877841D01*
X144348766Y-99877841D01*
X144355694Y-99878585D01*
X144408377Y-99884250D01*
X146104122Y-99884249D01*
X146163733Y-99877841D01*
X146298581Y-99827546D01*
X146413796Y-99741296D01*
X146500046Y-99626081D01*
X146550341Y-99491233D01*
X146556750Y-99431623D01*
X146556749Y-97985268D01*
X146576434Y-97918230D01*
X146593068Y-97897588D01*
X146795471Y-97695185D01*
X147044114Y-97446543D01*
X147044114Y-97446542D01*
X148253837Y-96236819D01*
X148315160Y-96203334D01*
X148341518Y-96200500D01*
X155904921Y-96200500D01*
X155971960Y-96220185D01*
X156017715Y-96272989D01*
X156027659Y-96342147D01*
X156010648Y-96389290D01*
X155890783Y-96584890D01*
X155794376Y-96817639D01*
X155735567Y-97062598D01*
X155715801Y-97313750D01*
X155735567Y-97564901D01*
X155794376Y-97809860D01*
X155890783Y-98042609D01*
X156022410Y-98257403D01*
X156022411Y-98257406D01*
X156057860Y-98298911D01*
X156186026Y-98448974D01*
X156310061Y-98554910D01*
X156377593Y-98612588D01*
X156377596Y-98612589D01*
X156592390Y-98744216D01*
X156825139Y-98840623D01*
X157070102Y-98899433D01*
X157321250Y-98919199D01*
X157572398Y-98899433D01*
X157817361Y-98840623D01*
X158050109Y-98744216D01*
X158264909Y-98612586D01*
X158456474Y-98448974D01*
X158620086Y-98257409D01*
X158693107Y-98138250D01*
X158732811Y-98073460D01*
X158784623Y-98026585D01*
X158838538Y-98014250D01*
X158972231Y-98014250D01*
X159039270Y-98033935D01*
X159059912Y-98050569D01*
X160763181Y-99753837D01*
X160796666Y-99815160D01*
X160799500Y-99841518D01*
X160799500Y-101476296D01*
X160779815Y-101543335D01*
X160727011Y-101589090D01*
X160657853Y-101599034D01*
X160594297Y-101570009D01*
X160587819Y-101563977D01*
X160578180Y-101554338D01*
X160578178Y-101554336D01*
X160438038Y-101452518D01*
X160283695Y-101373877D01*
X160118951Y-101320348D01*
X160118949Y-101320347D01*
X160118948Y-101320347D01*
X159987521Y-101299531D01*
X159947861Y-101293250D01*
X159774639Y-101293250D01*
X159734978Y-101299531D01*
X159603552Y-101320347D01*
X159438802Y-101373878D01*
X159284461Y-101452518D01*
X159222354Y-101497642D01*
X159144322Y-101554336D01*
X159144320Y-101554338D01*
X159144319Y-101554338D01*
X159021838Y-101676819D01*
X159021838Y-101676820D01*
X159021836Y-101676822D01*
X158978109Y-101737006D01*
X158920018Y-101816961D01*
X158841378Y-101971302D01*
X158787847Y-102136052D01*
X158770396Y-102246236D01*
X158760750Y-102307139D01*
X158760750Y-102480361D01*
X158787848Y-102651451D01*
X158841377Y-102816195D01*
X158920018Y-102970538D01*
X159021836Y-103110678D01*
X159144322Y-103233164D01*
X159284462Y-103334982D01*
X159438805Y-103413623D01*
X159603549Y-103467152D01*
X159774639Y-103494250D01*
X159774640Y-103494250D01*
X159947860Y-103494250D01*
X159947861Y-103494250D01*
X160118951Y-103467152D01*
X160283695Y-103413623D01*
X160438038Y-103334982D01*
X160578178Y-103233164D01*
X160587819Y-103223523D01*
X160649142Y-103190038D01*
X160718834Y-103195022D01*
X160774767Y-103236894D01*
X160799184Y-103302358D01*
X160799500Y-103311204D01*
X160799500Y-104074507D01*
X160780494Y-104140478D01*
X160774209Y-104150479D01*
X160714633Y-104320737D01*
X160714630Y-104320750D01*
X160694435Y-104499996D01*
X160694435Y-104500003D01*
X160714630Y-104679249D01*
X160714631Y-104679254D01*
X160774211Y-104849523D01*
X160825411Y-104931006D01*
X160870184Y-105002262D01*
X160997738Y-105129816D01*
X161150478Y-105225789D01*
X161254557Y-105262208D01*
X161311334Y-105302930D01*
X161337081Y-105367883D01*
X161323625Y-105436444D01*
X161275238Y-105486847D01*
X161213603Y-105503250D01*
X153045269Y-105503250D01*
X152978230Y-105483565D01*
X152957588Y-105466931D01*
X152236819Y-104746162D01*
X152203334Y-104684839D01*
X152200500Y-104658481D01*
X152200500Y-102246236D01*
X152530750Y-102246236D01*
X152530750Y-102541263D01*
X152555449Y-102728860D01*
X152569257Y-102833743D01*
X152645611Y-103118701D01*
X152645614Y-103118711D01*
X152758504Y-103391250D01*
X152758508Y-103391260D01*
X152906011Y-103646743D01*
X153085602Y-103880790D01*
X153085608Y-103880797D01*
X153294202Y-104089391D01*
X153294209Y-104089397D01*
X153528256Y-104268988D01*
X153783739Y-104416491D01*
X153783740Y-104416491D01*
X153783743Y-104416493D01*
X154056298Y-104529389D01*
X154341257Y-104605743D01*
X154633744Y-104644250D01*
X154633751Y-104644250D01*
X154928749Y-104644250D01*
X154928756Y-104644250D01*
X155221243Y-104605743D01*
X155506202Y-104529389D01*
X155778757Y-104416493D01*
X156034244Y-104268988D01*
X156268292Y-104089396D01*
X156476896Y-103880792D01*
X156656488Y-103646744D01*
X156803993Y-103391257D01*
X156916889Y-103118702D01*
X156993243Y-102833743D01*
X157031750Y-102541256D01*
X157031750Y-102246244D01*
X156993243Y-101953757D01*
X156916889Y-101668798D01*
X156803993Y-101396243D01*
X156739314Y-101284216D01*
X156656488Y-101140756D01*
X156476897Y-100906709D01*
X156476891Y-100906702D01*
X156268297Y-100698108D01*
X156268290Y-100698102D01*
X156034243Y-100518511D01*
X155778760Y-100371008D01*
X155778750Y-100371004D01*
X155506211Y-100258114D01*
X155506204Y-100258112D01*
X155506202Y-100258111D01*
X155221243Y-100181757D01*
X155172363Y-100175321D01*
X154928763Y-100143250D01*
X154928756Y-100143250D01*
X154633744Y-100143250D01*
X154633736Y-100143250D01*
X154355335Y-100179903D01*
X154341257Y-100181757D01*
X154056298Y-100258111D01*
X154056288Y-100258114D01*
X153783749Y-100371004D01*
X153783739Y-100371008D01*
X153528256Y-100518511D01*
X153294209Y-100698102D01*
X153294202Y-100698108D01*
X153085608Y-100906702D01*
X153085602Y-100906709D01*
X152906011Y-101140756D01*
X152758508Y-101396239D01*
X152758504Y-101396249D01*
X152645614Y-101668788D01*
X152645611Y-101668798D01*
X152569258Y-101953754D01*
X152569256Y-101953765D01*
X152530750Y-102246236D01*
X152200500Y-102246236D01*
X152200500Y-100924629D01*
X152220185Y-100857590D01*
X152230210Y-100844097D01*
X152270086Y-100797409D01*
X152401716Y-100582609D01*
X152498123Y-100349861D01*
X152556933Y-100104898D01*
X152576699Y-99853750D01*
X152556933Y-99602602D01*
X152498123Y-99357639D01*
X152401716Y-99124891D01*
X152401716Y-99124890D01*
X152270089Y-98910096D01*
X152270088Y-98910093D01*
X152128415Y-98744216D01*
X152106474Y-98718526D01*
X151979821Y-98610354D01*
X151914906Y-98554911D01*
X151914903Y-98554910D01*
X151700109Y-98423283D01*
X151467360Y-98326876D01*
X151222401Y-98268067D01*
X150971250Y-98248301D01*
X150720098Y-98268067D01*
X150475139Y-98326876D01*
X150242390Y-98423283D01*
X150027596Y-98554910D01*
X150027593Y-98554911D01*
X149836026Y-98718526D01*
X149672411Y-98910093D01*
X149672410Y-98910096D01*
X149540783Y-99124890D01*
X149444376Y-99357639D01*
X149385567Y-99602598D01*
X149365801Y-99853750D01*
X149385567Y-100104901D01*
X149444376Y-100349860D01*
X149540783Y-100582609D01*
X149672410Y-100797403D01*
X149672411Y-100797406D01*
X149712289Y-100844097D01*
X149836026Y-100988974D01*
X149950033Y-101086345D01*
X149988226Y-101144852D01*
X149988724Y-101214720D01*
X149951371Y-101273766D01*
X149888024Y-101303244D01*
X149850104Y-101303108D01*
X149787861Y-101293250D01*
X149614639Y-101293250D01*
X149574978Y-101299531D01*
X149443552Y-101320347D01*
X149278802Y-101373878D01*
X149124461Y-101452518D01*
X149062354Y-101497642D01*
X148984322Y-101554336D01*
X148984320Y-101554338D01*
X148984319Y-101554338D01*
X148861838Y-101676819D01*
X148861838Y-101676820D01*
X148861836Y-101676822D01*
X148818109Y-101737006D01*
X148760018Y-101816961D01*
X148681378Y-101971302D01*
X148627847Y-102136052D01*
X148610396Y-102246236D01*
X148600750Y-102307139D01*
X148600750Y-102480361D01*
X148627848Y-102651451D01*
X148681377Y-102816195D01*
X148760018Y-102970538D01*
X148861836Y-103110678D01*
X148984322Y-103233164D01*
X149124462Y-103334982D01*
X149278805Y-103413623D01*
X149443549Y-103467152D01*
X149614639Y-103494250D01*
X149614640Y-103494250D01*
X149787860Y-103494250D01*
X149787861Y-103494250D01*
X149958951Y-103467152D01*
X150123695Y-103413623D01*
X150278038Y-103334982D01*
X150418178Y-103233164D01*
X150540664Y-103110678D01*
X150575182Y-103063167D01*
X150630512Y-103020502D01*
X150700125Y-103014523D01*
X150761920Y-103047129D01*
X150796277Y-103107967D01*
X150799500Y-103136053D01*
X150799500Y-104931006D01*
X150799500Y-105068994D01*
X150799500Y-105068996D01*
X150799499Y-105068996D01*
X150826418Y-105204322D01*
X150826421Y-105204332D01*
X150879222Y-105331807D01*
X150955887Y-105446545D01*
X152257204Y-106747862D01*
X152371942Y-106824527D01*
X152499417Y-106877328D01*
X152499422Y-106877330D01*
X152499426Y-106877330D01*
X152499427Y-106877331D01*
X152634753Y-106904250D01*
X152634756Y-106904250D01*
X152634757Y-106904250D01*
X163144577Y-106904250D01*
X163211616Y-106923935D01*
X163246152Y-106957127D01*
X163306204Y-107042891D01*
X163467108Y-107203795D01*
X163467111Y-107203797D01*
X163653516Y-107334318D01*
X163859754Y-107430489D01*
X164079558Y-107489385D01*
X164241480Y-107503551D01*
X164306248Y-107509218D01*
X164306250Y-107509218D01*
X164306252Y-107509218D01*
X164362923Y-107504259D01*
X164532942Y-107489385D01*
X164752746Y-107430489D01*
X164958984Y-107334318D01*
X165145389Y-107203797D01*
X165306297Y-107042889D01*
X165436818Y-106856484D01*
X165532989Y-106650246D01*
X165591885Y-106430442D01*
X165611718Y-106203750D01*
X165591885Y-105977058D01*
X165532989Y-105757254D01*
X165436818Y-105551016D01*
X165306297Y-105364611D01*
X165306295Y-105364608D01*
X165145391Y-105203704D01*
X164958984Y-105073182D01*
X164958982Y-105073181D01*
X164752747Y-104977011D01*
X164752738Y-104977008D01*
X164532947Y-104918116D01*
X164532943Y-104918115D01*
X164532942Y-104918115D01*
X164532941Y-104918114D01*
X164532936Y-104918114D01*
X164306252Y-104898282D01*
X164306248Y-104898282D01*
X164079563Y-104918114D01*
X164079552Y-104918116D01*
X163859761Y-104977008D01*
X163859752Y-104977011D01*
X163653517Y-105073181D01*
X163653515Y-105073182D01*
X163467108Y-105203704D01*
X163306204Y-105364608D01*
X163246152Y-105450373D01*
X163191575Y-105493998D01*
X163144577Y-105503250D01*
X161786397Y-105503250D01*
X161719358Y-105483565D01*
X161673603Y-105430761D01*
X161663659Y-105361603D01*
X161692684Y-105298047D01*
X161745443Y-105262208D01*
X161781162Y-105249709D01*
X161849522Y-105225789D01*
X162002262Y-105129816D01*
X162129816Y-105002262D01*
X162225789Y-104849522D01*
X162285368Y-104679255D01*
X162289312Y-104644250D01*
X162305565Y-104500003D01*
X162305565Y-104499996D01*
X162285369Y-104320750D01*
X162285366Y-104320737D01*
X162225790Y-104150479D01*
X162219506Y-104140478D01*
X162200500Y-104074507D01*
X162200500Y-98425493D01*
X162219508Y-98359519D01*
X162225787Y-98349525D01*
X162225786Y-98349525D01*
X162225789Y-98349522D01*
X162285368Y-98179255D01*
X162289988Y-98138250D01*
X162305565Y-98000003D01*
X162305565Y-97999997D01*
X162291113Y-97871736D01*
X162303167Y-97802914D01*
X162350516Y-97751535D01*
X162418126Y-97733910D01*
X162484532Y-97755636D01*
X162502014Y-97770171D01*
X162969431Y-98237588D01*
X163002916Y-98298911D01*
X163005750Y-98325269D01*
X163005750Y-99431620D01*
X163005751Y-99431626D01*
X163012158Y-99491233D01*
X163062452Y-99626078D01*
X163062456Y-99626085D01*
X163148702Y-99741294D01*
X163148705Y-99741297D01*
X163263914Y-99827543D01*
X163263921Y-99827547D01*
X163398767Y-99877841D01*
X163398766Y-99877841D01*
X163405694Y-99878585D01*
X163458377Y-99884250D01*
X165154122Y-99884249D01*
X165213733Y-99877841D01*
X165348581Y-99827546D01*
X165463796Y-99741296D01*
X165550046Y-99626081D01*
X165600341Y-99491233D01*
X165606750Y-99431623D01*
X165606749Y-98435267D01*
X165626433Y-98368229D01*
X165643063Y-98347592D01*
X167753838Y-96236819D01*
X167815161Y-96203334D01*
X167841519Y-96200500D01*
X174954921Y-96200500D01*
X175021960Y-96220185D01*
X175067715Y-96272989D01*
X175077659Y-96342147D01*
X175060648Y-96389290D01*
X174940783Y-96584890D01*
X174844376Y-96817639D01*
X174785567Y-97062598D01*
X174765801Y-97313750D01*
X174785567Y-97564901D01*
X174844376Y-97809860D01*
X174940783Y-98042609D01*
X175072410Y-98257403D01*
X175072411Y-98257406D01*
X175107860Y-98298911D01*
X175236026Y-98448974D01*
X175360061Y-98554910D01*
X175427593Y-98612588D01*
X175427596Y-98612589D01*
X175642390Y-98744216D01*
X175875139Y-98840623D01*
X176120102Y-98899433D01*
X176371250Y-98919199D01*
X176622398Y-98899433D01*
X176867361Y-98840623D01*
X177100109Y-98744216D01*
X177314909Y-98612586D01*
X177506474Y-98448974D01*
X177670086Y-98257409D01*
X177743107Y-98138250D01*
X177782811Y-98073460D01*
X177834623Y-98026585D01*
X177888538Y-98014250D01*
X177972231Y-98014250D01*
X178039270Y-98033935D01*
X178059912Y-98050569D01*
X179763181Y-99753837D01*
X179796666Y-99815160D01*
X179799500Y-99841518D01*
X179799500Y-101435445D01*
X179779815Y-101502484D01*
X179727011Y-101548239D01*
X179657853Y-101558183D01*
X179602615Y-101535763D01*
X179488038Y-101452518D01*
X179333695Y-101373877D01*
X179168951Y-101320348D01*
X179168949Y-101320347D01*
X179168948Y-101320347D01*
X179037521Y-101299531D01*
X178997861Y-101293250D01*
X178824639Y-101293250D01*
X178784978Y-101299531D01*
X178653552Y-101320347D01*
X178488802Y-101373878D01*
X178334461Y-101452518D01*
X178272354Y-101497642D01*
X178194322Y-101554336D01*
X178194320Y-101554338D01*
X178194319Y-101554338D01*
X178071838Y-101676819D01*
X178071838Y-101676820D01*
X178071836Y-101676822D01*
X178028109Y-101737006D01*
X177970018Y-101816961D01*
X177891378Y-101971302D01*
X177837847Y-102136052D01*
X177820396Y-102246236D01*
X177810750Y-102307139D01*
X177810750Y-102480361D01*
X177837848Y-102651451D01*
X177891377Y-102816195D01*
X177970018Y-102970538D01*
X178071836Y-103110678D01*
X178194322Y-103233164D01*
X178334462Y-103334982D01*
X178488805Y-103413623D01*
X178653549Y-103467152D01*
X178824639Y-103494250D01*
X178824640Y-103494250D01*
X178997860Y-103494250D01*
X178997861Y-103494250D01*
X179168951Y-103467152D01*
X179333695Y-103413623D01*
X179488038Y-103334982D01*
X179602615Y-103251736D01*
X179668420Y-103228256D01*
X179736474Y-103244081D01*
X179785169Y-103294186D01*
X179799500Y-103352054D01*
X179799500Y-104074507D01*
X179780494Y-104140478D01*
X179774209Y-104150479D01*
X179714633Y-104320737D01*
X179714630Y-104320750D01*
X179694435Y-104499996D01*
X179694435Y-104500003D01*
X179714630Y-104679249D01*
X179714631Y-104679254D01*
X179774211Y-104849523D01*
X179825411Y-104931006D01*
X179870184Y-105002262D01*
X179997738Y-105129816D01*
X180150478Y-105225789D01*
X180254557Y-105262208D01*
X180311334Y-105302930D01*
X180337081Y-105367883D01*
X180323625Y-105436444D01*
X180275238Y-105486847D01*
X180213603Y-105503250D01*
X172045269Y-105503250D01*
X171978230Y-105483565D01*
X171957588Y-105466931D01*
X171236819Y-104746162D01*
X171203334Y-104684839D01*
X171200500Y-104658481D01*
X171200500Y-102246236D01*
X171580750Y-102246236D01*
X171580750Y-102541263D01*
X171605449Y-102728860D01*
X171619257Y-102833743D01*
X171695611Y-103118701D01*
X171695614Y-103118711D01*
X171808504Y-103391250D01*
X171808508Y-103391260D01*
X171956011Y-103646743D01*
X172135602Y-103880790D01*
X172135608Y-103880797D01*
X172344202Y-104089391D01*
X172344209Y-104089397D01*
X172578256Y-104268988D01*
X172833739Y-104416491D01*
X172833740Y-104416491D01*
X172833743Y-104416493D01*
X173106298Y-104529389D01*
X173391257Y-104605743D01*
X173683744Y-104644250D01*
X173683751Y-104644250D01*
X173978749Y-104644250D01*
X173978756Y-104644250D01*
X174271243Y-104605743D01*
X174556202Y-104529389D01*
X174828757Y-104416493D01*
X175084244Y-104268988D01*
X175318292Y-104089396D01*
X175526896Y-103880792D01*
X175706488Y-103646744D01*
X175853993Y-103391257D01*
X175966889Y-103118702D01*
X176043243Y-102833743D01*
X176081750Y-102541256D01*
X176081750Y-102246244D01*
X176043243Y-101953757D01*
X175966889Y-101668798D01*
X175853993Y-101396243D01*
X175789314Y-101284216D01*
X175706488Y-101140756D01*
X175526897Y-100906709D01*
X175526891Y-100906702D01*
X175318297Y-100698108D01*
X175318290Y-100698102D01*
X175084243Y-100518511D01*
X174828760Y-100371008D01*
X174828750Y-100371004D01*
X174556211Y-100258114D01*
X174556204Y-100258112D01*
X174556202Y-100258111D01*
X174271243Y-100181757D01*
X174222363Y-100175321D01*
X173978763Y-100143250D01*
X173978756Y-100143250D01*
X173683744Y-100143250D01*
X173683736Y-100143250D01*
X173405335Y-100179903D01*
X173391257Y-100181757D01*
X173106298Y-100258111D01*
X173106288Y-100258114D01*
X172833749Y-100371004D01*
X172833739Y-100371008D01*
X172578256Y-100518511D01*
X172344209Y-100698102D01*
X172344202Y-100698108D01*
X172135608Y-100906702D01*
X172135602Y-100906709D01*
X171956011Y-101140756D01*
X171808508Y-101396239D01*
X171808504Y-101396249D01*
X171695614Y-101668788D01*
X171695611Y-101668798D01*
X171619258Y-101953754D01*
X171619256Y-101953765D01*
X171580750Y-102246236D01*
X171200500Y-102246236D01*
X171200500Y-100983172D01*
X171220185Y-100916133D01*
X171230210Y-100902641D01*
X171300500Y-100820341D01*
X171320086Y-100797409D01*
X171451716Y-100582609D01*
X171548123Y-100349861D01*
X171606933Y-100104898D01*
X171626699Y-99853750D01*
X171606933Y-99602602D01*
X171548123Y-99357639D01*
X171451716Y-99124891D01*
X171451716Y-99124890D01*
X171320089Y-98910096D01*
X171320088Y-98910093D01*
X171178415Y-98744216D01*
X171156474Y-98718526D01*
X171029821Y-98610354D01*
X170964906Y-98554911D01*
X170964903Y-98554910D01*
X170750109Y-98423283D01*
X170517360Y-98326876D01*
X170272401Y-98268067D01*
X170021250Y-98248301D01*
X169770098Y-98268067D01*
X169525139Y-98326876D01*
X169292390Y-98423283D01*
X169077596Y-98554910D01*
X169077593Y-98554911D01*
X168886026Y-98718526D01*
X168722411Y-98910093D01*
X168722410Y-98910096D01*
X168590783Y-99124890D01*
X168494376Y-99357639D01*
X168435567Y-99602598D01*
X168415801Y-99853750D01*
X168435567Y-100104901D01*
X168494376Y-100349860D01*
X168590783Y-100582609D01*
X168722410Y-100797403D01*
X168722411Y-100797406D01*
X168762289Y-100844097D01*
X168886026Y-100988974D01*
X169000033Y-101086345D01*
X169038226Y-101144852D01*
X169038724Y-101214720D01*
X169001371Y-101273766D01*
X168938024Y-101303244D01*
X168900104Y-101303108D01*
X168837861Y-101293250D01*
X168664639Y-101293250D01*
X168624978Y-101299531D01*
X168493552Y-101320347D01*
X168328802Y-101373878D01*
X168174461Y-101452518D01*
X168112354Y-101497642D01*
X168034322Y-101554336D01*
X168034320Y-101554338D01*
X168034319Y-101554338D01*
X167911838Y-101676819D01*
X167911838Y-101676820D01*
X167911836Y-101676822D01*
X167868109Y-101737006D01*
X167810018Y-101816961D01*
X167731378Y-101971302D01*
X167677847Y-102136052D01*
X167660396Y-102246236D01*
X167650750Y-102307139D01*
X167650750Y-102480361D01*
X167677848Y-102651451D01*
X167731377Y-102816195D01*
X167810018Y-102970538D01*
X167911836Y-103110678D01*
X168034322Y-103233164D01*
X168174462Y-103334982D01*
X168328805Y-103413623D01*
X168493549Y-103467152D01*
X168664639Y-103494250D01*
X168664640Y-103494250D01*
X168837860Y-103494250D01*
X168837861Y-103494250D01*
X169008951Y-103467152D01*
X169173695Y-103413623D01*
X169328038Y-103334982D01*
X169468178Y-103233164D01*
X169587819Y-103113523D01*
X169649142Y-103080038D01*
X169718834Y-103085022D01*
X169774767Y-103126894D01*
X169799184Y-103192358D01*
X169799500Y-103201204D01*
X169799500Y-104931006D01*
X169799500Y-105068994D01*
X169799500Y-105068996D01*
X169799499Y-105068996D01*
X169826418Y-105204322D01*
X169826421Y-105204332D01*
X169879222Y-105331807D01*
X169955887Y-105446545D01*
X171257204Y-106747862D01*
X171371942Y-106824527D01*
X171499417Y-106877328D01*
X171499422Y-106877330D01*
X171499426Y-106877330D01*
X171499427Y-106877331D01*
X171634753Y-106904250D01*
X171634756Y-106904250D01*
X171634757Y-106904250D01*
X182194577Y-106904250D01*
X182261616Y-106923935D01*
X182296152Y-106957127D01*
X182356204Y-107042891D01*
X182517108Y-107203795D01*
X182517111Y-107203797D01*
X182703516Y-107334318D01*
X182909754Y-107430489D01*
X183129558Y-107489385D01*
X183291480Y-107503551D01*
X183356248Y-107509218D01*
X183356250Y-107509218D01*
X183356252Y-107509218D01*
X183412923Y-107504259D01*
X183582942Y-107489385D01*
X183802746Y-107430489D01*
X184008984Y-107334318D01*
X184195389Y-107203797D01*
X184356297Y-107042889D01*
X184486818Y-106856484D01*
X184582989Y-106650246D01*
X184641885Y-106430442D01*
X184661718Y-106203750D01*
X184641885Y-105977058D01*
X184582989Y-105757254D01*
X184486818Y-105551016D01*
X184356297Y-105364611D01*
X184356295Y-105364608D01*
X184195391Y-105203704D01*
X184008984Y-105073182D01*
X184008982Y-105073181D01*
X183802747Y-104977011D01*
X183802738Y-104977008D01*
X183582947Y-104918116D01*
X183582943Y-104918115D01*
X183582942Y-104918115D01*
X183582941Y-104918114D01*
X183582936Y-104918114D01*
X183356252Y-104898282D01*
X183356248Y-104898282D01*
X183129563Y-104918114D01*
X183129552Y-104918116D01*
X182909761Y-104977008D01*
X182909752Y-104977011D01*
X182703517Y-105073181D01*
X182703515Y-105073182D01*
X182517108Y-105203704D01*
X182356204Y-105364608D01*
X182296152Y-105450373D01*
X182241575Y-105493998D01*
X182194577Y-105503250D01*
X180786397Y-105503250D01*
X180719358Y-105483565D01*
X180673603Y-105430761D01*
X180663659Y-105361603D01*
X180692684Y-105298047D01*
X180745443Y-105262208D01*
X180781162Y-105249709D01*
X180849522Y-105225789D01*
X181002262Y-105129816D01*
X181129816Y-105002262D01*
X181225789Y-104849522D01*
X181285368Y-104679255D01*
X181289312Y-104644250D01*
X181305565Y-104500003D01*
X181305565Y-104499996D01*
X181285369Y-104320750D01*
X181285366Y-104320737D01*
X181225790Y-104150479D01*
X181219506Y-104140478D01*
X181200500Y-104074507D01*
X181200500Y-98425493D01*
X181219508Y-98359519D01*
X181225787Y-98349525D01*
X181225786Y-98349525D01*
X181225789Y-98349522D01*
X181285368Y-98179255D01*
X181289988Y-98138250D01*
X181305565Y-98000003D01*
X181305565Y-97999997D01*
X181284764Y-97815387D01*
X181296818Y-97746565D01*
X181344167Y-97695185D01*
X181411778Y-97677561D01*
X181478183Y-97699287D01*
X181495665Y-97713822D01*
X182019431Y-98237588D01*
X182052916Y-98298911D01*
X182055750Y-98325269D01*
X182055750Y-99431620D01*
X182055751Y-99431626D01*
X182062158Y-99491233D01*
X182112452Y-99626078D01*
X182112456Y-99626085D01*
X182198702Y-99741294D01*
X182198705Y-99741297D01*
X182313914Y-99827543D01*
X182313921Y-99827547D01*
X182448767Y-99877841D01*
X182448766Y-99877841D01*
X182455694Y-99878585D01*
X182508377Y-99884250D01*
X184204122Y-99884249D01*
X184263733Y-99877841D01*
X184398581Y-99827546D01*
X184513796Y-99741296D01*
X184600046Y-99626081D01*
X184650341Y-99491233D01*
X184656750Y-99431623D01*
X184656749Y-97735878D01*
X184650341Y-97676267D01*
X184643335Y-97657484D01*
X184600047Y-97541421D01*
X184600043Y-97541414D01*
X184513797Y-97426205D01*
X184513794Y-97426202D01*
X184398585Y-97339956D01*
X184398578Y-97339952D01*
X184263732Y-97289658D01*
X184263733Y-97289658D01*
X184204133Y-97283251D01*
X184204131Y-97283250D01*
X184204123Y-97283250D01*
X184204115Y-97283250D01*
X183097769Y-97283250D01*
X183030730Y-97263565D01*
X183010088Y-97246931D01*
X180721956Y-94958798D01*
X180688471Y-94897475D01*
X180693455Y-94827783D01*
X180735327Y-94771850D01*
X180768681Y-94754076D01*
X180816717Y-94737267D01*
X180849520Y-94725790D01*
X180849522Y-94725789D01*
X181002262Y-94629816D01*
X181129816Y-94502262D01*
X181225789Y-94349522D01*
X181285368Y-94179255D01*
X181286616Y-94168182D01*
X181305565Y-94000003D01*
X181305565Y-93999996D01*
X181285369Y-93820750D01*
X181285366Y-93820737D01*
X181225790Y-93650479D01*
X181219506Y-93640478D01*
X181200500Y-93574507D01*
X181200500Y-88925493D01*
X181219508Y-88859519D01*
X181225787Y-88849525D01*
X181225786Y-88849525D01*
X181225789Y-88849522D01*
X181285368Y-88679255D01*
X181305565Y-88500000D01*
X181298735Y-88439385D01*
X181285369Y-88320750D01*
X181285368Y-88320745D01*
X181226950Y-88153797D01*
X181225789Y-88150478D01*
X181159024Y-88044222D01*
X181140024Y-87976985D01*
X181160392Y-87910150D01*
X181213660Y-87864936D01*
X181264018Y-87854250D01*
X182194577Y-87854250D01*
X182261616Y-87873935D01*
X182296152Y-87907127D01*
X182356204Y-87992891D01*
X182517108Y-88153795D01*
X182517111Y-88153797D01*
X182703516Y-88284318D01*
X182909754Y-88380489D01*
X183129558Y-88439385D01*
X183291480Y-88453551D01*
X183356248Y-88459218D01*
X183356250Y-88459218D01*
X183356252Y-88459218D01*
X183412923Y-88454259D01*
X183582942Y-88439385D01*
X183802746Y-88380489D01*
X184008984Y-88284318D01*
X184195389Y-88153797D01*
X184356297Y-87992889D01*
X184486818Y-87806484D01*
X184582989Y-87600246D01*
X184641885Y-87380442D01*
X184661718Y-87153750D01*
X184641885Y-86927058D01*
X184582989Y-86707254D01*
X184486818Y-86501016D01*
X184380742Y-86349522D01*
X184356295Y-86314608D01*
X184195391Y-86153704D01*
X184008984Y-86023182D01*
X184008982Y-86023181D01*
X183802747Y-85927011D01*
X183802738Y-85927008D01*
X183582947Y-85868116D01*
X183582943Y-85868115D01*
X183582942Y-85868115D01*
X183582941Y-85868114D01*
X183582936Y-85868114D01*
X183356252Y-85848282D01*
X183356248Y-85848282D01*
X183129563Y-85868114D01*
X183129552Y-85868116D01*
X182909761Y-85927008D01*
X182909752Y-85927011D01*
X182703517Y-86023181D01*
X182703515Y-86023182D01*
X182517108Y-86153704D01*
X182356204Y-86314608D01*
X182296152Y-86400373D01*
X182241575Y-86443998D01*
X182194577Y-86453250D01*
X181364255Y-86453250D01*
X181297216Y-86433565D01*
X181251461Y-86380761D01*
X181241517Y-86311603D01*
X181247214Y-86288295D01*
X181285366Y-86179262D01*
X181285369Y-86179249D01*
X181305565Y-86000003D01*
X181305565Y-85999996D01*
X181285369Y-85820750D01*
X181285366Y-85820737D01*
X181225790Y-85650479D01*
X181219506Y-85640478D01*
X181200500Y-85574507D01*
X181200500Y-79931004D01*
X181173581Y-79795677D01*
X181173580Y-79795676D01*
X181173580Y-79795672D01*
X181120915Y-79668526D01*
X181120778Y-79668195D01*
X181120771Y-79668182D01*
X181058883Y-79575561D01*
X181058881Y-79575558D01*
X181044116Y-79553459D01*
X181044114Y-79553457D01*
X179210296Y-77719638D01*
X179210295Y-77719637D01*
X179095557Y-77642972D01*
X178968082Y-77590171D01*
X178968072Y-77590168D01*
X178832746Y-77563250D01*
X178832744Y-77563250D01*
X178832743Y-77563250D01*
X177888538Y-77563250D01*
X177821499Y-77543565D01*
X177782811Y-77504040D01*
X177712492Y-77389290D01*
X177694247Y-77321844D01*
X177715363Y-77255242D01*
X177769135Y-77210628D01*
X177818219Y-77200500D01*
X179980981Y-77200500D01*
X180048020Y-77220185D01*
X180068662Y-77236819D01*
X182019431Y-79187587D01*
X182052916Y-79248910D01*
X182055750Y-79275268D01*
X182055750Y-80381620D01*
X182055751Y-80381622D01*
X182062158Y-80441233D01*
X182112452Y-80576078D01*
X182112456Y-80576085D01*
X182198702Y-80691294D01*
X182198705Y-80691297D01*
X182313914Y-80777543D01*
X182313921Y-80777547D01*
X182448767Y-80827841D01*
X182448766Y-80827841D01*
X182455694Y-80828585D01*
X182508377Y-80834250D01*
X184204122Y-80834249D01*
X184263733Y-80827841D01*
X184398581Y-80777546D01*
X184513796Y-80691296D01*
X184600046Y-80576081D01*
X184650341Y-80441233D01*
X184656750Y-80381623D01*
X184656749Y-78685878D01*
X184650341Y-78626267D01*
X184600046Y-78491419D01*
X184600045Y-78491418D01*
X184600043Y-78491414D01*
X184513797Y-78376205D01*
X184513794Y-78376202D01*
X184398585Y-78289956D01*
X184398578Y-78289952D01*
X184263732Y-78239658D01*
X184263733Y-78239658D01*
X184204133Y-78233251D01*
X184204131Y-78233250D01*
X184204123Y-78233250D01*
X184204115Y-78233250D01*
X183097768Y-78233250D01*
X183030729Y-78213565D01*
X183010087Y-78196931D01*
X181060298Y-76247141D01*
X181026813Y-76185818D01*
X181031797Y-76116126D01*
X181060294Y-76071783D01*
X181129816Y-76002262D01*
X181225789Y-75849522D01*
X181285368Y-75679255D01*
X181285791Y-75675500D01*
X181305565Y-75500003D01*
X181305565Y-75499996D01*
X181285369Y-75320750D01*
X181285368Y-75320745D01*
X181225788Y-75150476D01*
X181129815Y-74997737D01*
X181002262Y-74870184D01*
X180849519Y-74774209D01*
X180746013Y-74737990D01*
X180699287Y-74708630D01*
X178946546Y-72955888D01*
X178946545Y-72955887D01*
X178831807Y-72879222D01*
X178704332Y-72826421D01*
X178704322Y-72826418D01*
X178568996Y-72799500D01*
X178568994Y-72799500D01*
X178568993Y-72799500D01*
X177925494Y-72799500D01*
X177859523Y-72780494D01*
X177849525Y-72774212D01*
X177679254Y-72714631D01*
X177679249Y-72714630D01*
X177500004Y-72694435D01*
X177499996Y-72694435D01*
X177320750Y-72714630D01*
X177320745Y-72714631D01*
X177150476Y-72774211D01*
X176997737Y-72870184D01*
X176870184Y-72997737D01*
X176774211Y-73150476D01*
X176714631Y-73320745D01*
X176714630Y-73320750D01*
X176694435Y-73499996D01*
X176694435Y-73500003D01*
X176714630Y-73679249D01*
X176714631Y-73679254D01*
X176774211Y-73849523D01*
X176867023Y-73997231D01*
X176870184Y-74002262D01*
X176997738Y-74129816D01*
X177076410Y-74179249D01*
X177150474Y-74225787D01*
X177150478Y-74225789D01*
X177320745Y-74285368D01*
X177320750Y-74285369D01*
X177499996Y-74305565D01*
X177500000Y-74305565D01*
X177500004Y-74305565D01*
X177679249Y-74285369D01*
X177679252Y-74285368D01*
X177679255Y-74285368D01*
X177849522Y-74225789D01*
X177850488Y-74225181D01*
X177859523Y-74219506D01*
X177925494Y-74200500D01*
X178158481Y-74200500D01*
X178225520Y-74220185D01*
X178246162Y-74236819D01*
X179597162Y-75587819D01*
X179630647Y-75649142D01*
X179625663Y-75718834D01*
X179583791Y-75774767D01*
X179518327Y-75799184D01*
X179509481Y-75799500D01*
X167271002Y-75799500D01*
X167164202Y-75820743D01*
X167164203Y-75820744D01*
X167135676Y-75826418D01*
X167135666Y-75826421D01*
X167095203Y-75843181D01*
X167095204Y-75843182D01*
X167008191Y-75879223D01*
X166925420Y-75934530D01*
X166925419Y-75934531D01*
X166893457Y-75955886D01*
X166893455Y-75955888D01*
X166825347Y-76023995D01*
X166764023Y-76057480D01*
X166694332Y-76052494D01*
X166638399Y-76010622D01*
X166632674Y-76002287D01*
X166629816Y-75997738D01*
X166502262Y-75870184D01*
X166432609Y-75826418D01*
X166349524Y-75774212D01*
X166349520Y-75774210D01*
X166246013Y-75737991D01*
X166199287Y-75708631D01*
X165236819Y-74746162D01*
X165203334Y-74684839D01*
X165200500Y-74658481D01*
X165200500Y-72499996D01*
X167694435Y-72499996D01*
X167694435Y-72500003D01*
X167714630Y-72679249D01*
X167714631Y-72679254D01*
X167774211Y-72849523D01*
X167841045Y-72955888D01*
X167870184Y-73002262D01*
X167997738Y-73129816D01*
X168150478Y-73225789D01*
X168320745Y-73285368D01*
X168320750Y-73285369D01*
X168499996Y-73305565D01*
X168500000Y-73305565D01*
X168500004Y-73305565D01*
X168679249Y-73285369D01*
X168679252Y-73285368D01*
X168679255Y-73285368D01*
X168849522Y-73225789D01*
X169002262Y-73129816D01*
X169129816Y-73002262D01*
X169225789Y-72849522D01*
X169285368Y-72679255D01*
X169305565Y-72500000D01*
X169285368Y-72320745D01*
X169285367Y-72320743D01*
X169285366Y-72320737D01*
X169225790Y-72150479D01*
X169219506Y-72140478D01*
X169200500Y-72074507D01*
X169200500Y-71841519D01*
X169220185Y-71774480D01*
X169236819Y-71753838D01*
X169753838Y-71236819D01*
X169815161Y-71203334D01*
X169841519Y-71200500D01*
X176158481Y-71200500D01*
X176225520Y-71220185D01*
X176246162Y-71236819D01*
X176708630Y-71699287D01*
X176737990Y-71746013D01*
X176774209Y-71849519D01*
X176774211Y-71849522D01*
X176870184Y-72002262D01*
X176997738Y-72129816D01*
X177150478Y-72225789D01*
X177320745Y-72285368D01*
X177320750Y-72285369D01*
X177499996Y-72305565D01*
X177500000Y-72305565D01*
X177500004Y-72305565D01*
X177679249Y-72285369D01*
X177679252Y-72285368D01*
X177679255Y-72285368D01*
X177849522Y-72225789D01*
X178002262Y-72129816D01*
X178129816Y-72002262D01*
X178225789Y-71849522D01*
X178285368Y-71679255D01*
X178285369Y-71679249D01*
X178305565Y-71500003D01*
X178305565Y-71499996D01*
X178285369Y-71320750D01*
X178285368Y-71320745D01*
X178252141Y-71225789D01*
X178225789Y-71150478D01*
X178129816Y-70997738D01*
X178002262Y-70870184D01*
X177931875Y-70825957D01*
X177849519Y-70774209D01*
X177746013Y-70737990D01*
X177699287Y-70708630D01*
X176946546Y-69955888D01*
X176946545Y-69955887D01*
X176831807Y-69879222D01*
X176704332Y-69826421D01*
X176704322Y-69826418D01*
X176568996Y-69799500D01*
X176568994Y-69799500D01*
X176568993Y-69799500D01*
X169568994Y-69799500D01*
X169431006Y-69799500D01*
X169431004Y-69799500D01*
X169295677Y-69826418D01*
X169295667Y-69826421D01*
X169168192Y-69879222D01*
X169053454Y-69955887D01*
X169053453Y-69955888D01*
X167955885Y-71053457D01*
X167955880Y-71053463D01*
X167946056Y-71068168D01*
X167946054Y-71068172D01*
X167879223Y-71168191D01*
X167826421Y-71295667D01*
X167826418Y-71295677D01*
X167799500Y-71431004D01*
X167799500Y-72074507D01*
X167780494Y-72140478D01*
X167774209Y-72150479D01*
X167714633Y-72320737D01*
X167714630Y-72320750D01*
X167694435Y-72499996D01*
X165200500Y-72499996D01*
X165200500Y-70931005D01*
X165188401Y-70870185D01*
X165188401Y-70870184D01*
X165173580Y-70795672D01*
X165120775Y-70668189D01*
X165044114Y-70553457D01*
X165044112Y-70553454D01*
X165044111Y-70553453D01*
X164791367Y-70300710D01*
X164762006Y-70253983D01*
X164758265Y-70243292D01*
X164725789Y-70150478D01*
X164629816Y-69997738D01*
X164502262Y-69870184D01*
X164432614Y-69826421D01*
X164349523Y-69774211D01*
X164179254Y-69714631D01*
X164179249Y-69714630D01*
X164000004Y-69694435D01*
X163999996Y-69694435D01*
X163820750Y-69714630D01*
X163820745Y-69714631D01*
X163650476Y-69774211D01*
X163497737Y-69870184D01*
X163370182Y-69997739D01*
X163330743Y-70060507D01*
X163278409Y-70106797D01*
X163209355Y-70117445D01*
X163145507Y-70089070D01*
X163107135Y-70030680D01*
X163101750Y-69994534D01*
X163101750Y-68266533D01*
X163121435Y-68199494D01*
X163154625Y-68164959D01*
X163215870Y-68122076D01*
X163372076Y-67965870D01*
X163498784Y-67784912D01*
X163592144Y-67584700D01*
X163649320Y-67371318D01*
X163663759Y-67206267D01*
X163668573Y-67151252D01*
X163668573Y-67151247D01*
X163649320Y-66931187D01*
X163649320Y-66931182D01*
X163592144Y-66717800D01*
X163498784Y-66517589D01*
X163372076Y-66336630D01*
X163215870Y-66180424D01*
X163215866Y-66180421D01*
X163215865Y-66180420D01*
X163034916Y-66053718D01*
X163034908Y-66053714D01*
X162906061Y-65993632D01*
X162853621Y-65947460D01*
X162834469Y-65880267D01*
X162854685Y-65813385D01*
X162906061Y-65768868D01*
X162912052Y-65766074D01*
X163034912Y-65708784D01*
X163215870Y-65582076D01*
X163372076Y-65425870D01*
X163498784Y-65244912D01*
X163592144Y-65044700D01*
X163649320Y-64831318D01*
X163665997Y-64640691D01*
X163668573Y-64611252D01*
X163668573Y-64611247D01*
X163649320Y-64391187D01*
X163649320Y-64391182D01*
X163592144Y-64177800D01*
X163498784Y-63977589D01*
X163372076Y-63796630D01*
X163215870Y-63640424D01*
X163215866Y-63640421D01*
X163215865Y-63640420D01*
X163034916Y-63513718D01*
X163034908Y-63513714D01*
X162906061Y-63453632D01*
X162853621Y-63407460D01*
X162834469Y-63340267D01*
X162854685Y-63273385D01*
X162906061Y-63228868D01*
X162912052Y-63226074D01*
X163034912Y-63168784D01*
X163215870Y-63042076D01*
X163372076Y-62885870D01*
X163498784Y-62704912D01*
X163592144Y-62504700D01*
X163649320Y-62291318D01*
X163668573Y-62071250D01*
X163649320Y-61851182D01*
X163592144Y-61637800D01*
X163498784Y-61437589D01*
X163372076Y-61256630D01*
X163215870Y-61100424D01*
X163215866Y-61100421D01*
X163215865Y-61100420D01*
X163034916Y-60973718D01*
X163034908Y-60973714D01*
X162906061Y-60913632D01*
X162853621Y-60867460D01*
X162834469Y-60800267D01*
X162854685Y-60733385D01*
X162906061Y-60688868D01*
X162912052Y-60686074D01*
X163034912Y-60628784D01*
X163215870Y-60502076D01*
X163372076Y-60345870D01*
X163498784Y-60164912D01*
X163592144Y-59964700D01*
X163649320Y-59751318D01*
X163668573Y-59531250D01*
X163649320Y-59311182D01*
X163592144Y-59097800D01*
X163498784Y-58897589D01*
X163372076Y-58716630D01*
X163215870Y-58560424D01*
X163215866Y-58560421D01*
X163215865Y-58560420D01*
X163034916Y-58433718D01*
X163034908Y-58433714D01*
X162906061Y-58373632D01*
X162853621Y-58327460D01*
X162834469Y-58260267D01*
X162854685Y-58193385D01*
X162906061Y-58148868D01*
X162912052Y-58146074D01*
X163034912Y-58088784D01*
X163215870Y-57962076D01*
X163372076Y-57805870D01*
X163498784Y-57624912D01*
X163592144Y-57424700D01*
X163649320Y-57211318D01*
X163668573Y-56991250D01*
X163649320Y-56771182D01*
X163592144Y-56557800D01*
X163498784Y-56357589D01*
X163372076Y-56176630D01*
X163215870Y-56020424D01*
X163215866Y-56020421D01*
X163215865Y-56020420D01*
X163034916Y-55893718D01*
X163034912Y-55893716D01*
X162905468Y-55833355D01*
X162853029Y-55787182D01*
X162833877Y-55719989D01*
X162854093Y-55653108D01*
X162905469Y-55608590D01*
X163034666Y-55548345D01*
X163034667Y-55548344D01*
X163099438Y-55502991D01*
X162485345Y-54888897D01*
X162572821Y-54865458D01*
X162674180Y-54806939D01*
X162756939Y-54724180D01*
X162815458Y-54622821D01*
X162838897Y-54535344D01*
X163452991Y-55149438D01*
X163498344Y-55084667D01*
X163498350Y-55084657D01*
X163591669Y-54884534D01*
X163591674Y-54884520D01*
X163648823Y-54671236D01*
X163648825Y-54671226D01*
X163668071Y-54451250D01*
X163668071Y-54451249D01*
X163648825Y-54231273D01*
X163648823Y-54231263D01*
X163591674Y-54017979D01*
X163591670Y-54017970D01*
X163498346Y-53817836D01*
X163452991Y-53753061D01*
X163452990Y-53753060D01*
X162838897Y-54367154D01*
X162815458Y-54279679D01*
X162756939Y-54178320D01*
X162674180Y-54095561D01*
X162572821Y-54037042D01*
X162485344Y-54013602D01*
X163099438Y-53399508D01*
X163069737Y-53378711D01*
X184649500Y-53378711D01*
X184649500Y-53621288D01*
X184681161Y-53861785D01*
X184743947Y-54096104D01*
X184799932Y-54231263D01*
X184836776Y-54320212D01*
X184958064Y-54530289D01*
X184958066Y-54530292D01*
X184958067Y-54530293D01*
X185105733Y-54722736D01*
X185105739Y-54722743D01*
X185277256Y-54894260D01*
X185277262Y-54894265D01*
X185469711Y-55041936D01*
X185679788Y-55163224D01*
X185903900Y-55256054D01*
X186138211Y-55318838D01*
X186318586Y-55342584D01*
X186378711Y-55350500D01*
X186378712Y-55350500D01*
X186621289Y-55350500D01*
X186669388Y-55344167D01*
X186861789Y-55318838D01*
X187096100Y-55256054D01*
X187320212Y-55163224D01*
X187530289Y-55041936D01*
X187722738Y-54894265D01*
X187894265Y-54722738D01*
X188041936Y-54530289D01*
X188163224Y-54320212D01*
X188256054Y-54096100D01*
X188318838Y-53861789D01*
X188350500Y-53621288D01*
X188350500Y-53378712D01*
X188318838Y-53138211D01*
X188256054Y-52903900D01*
X188163224Y-52679788D01*
X188041936Y-52469711D01*
X187894265Y-52277262D01*
X187894260Y-52277256D01*
X187722743Y-52105739D01*
X187722736Y-52105733D01*
X187530293Y-51958067D01*
X187530292Y-51958066D01*
X187530289Y-51958064D01*
X187320212Y-51836776D01*
X187320205Y-51836773D01*
X187096104Y-51743947D01*
X186899184Y-51691182D01*
X186861789Y-51681162D01*
X186861788Y-51681161D01*
X186861785Y-51681161D01*
X186621289Y-51649500D01*
X186621288Y-51649500D01*
X186378712Y-51649500D01*
X186378711Y-51649500D01*
X186138214Y-51681161D01*
X185903895Y-51743947D01*
X185679794Y-51836773D01*
X185679785Y-51836777D01*
X185469706Y-51958067D01*
X185277263Y-52105733D01*
X185277256Y-52105739D01*
X185105739Y-52277256D01*
X185105733Y-52277263D01*
X184958067Y-52469706D01*
X184836777Y-52679785D01*
X184836773Y-52679794D01*
X184743947Y-52903895D01*
X184681161Y-53138214D01*
X184649500Y-53378711D01*
X163069737Y-53378711D01*
X163034661Y-53354151D01*
X163034655Y-53354148D01*
X162905469Y-53293908D01*
X162853029Y-53247736D01*
X162833877Y-53180543D01*
X162854093Y-53113661D01*
X162905469Y-53069144D01*
X162906061Y-53068868D01*
X163034912Y-53008784D01*
X163215870Y-52882076D01*
X163372076Y-52725870D01*
X163498784Y-52544912D01*
X163592144Y-52344700D01*
X163649320Y-52131318D01*
X163668573Y-51911250D01*
X163649320Y-51691182D01*
X163592144Y-51477800D01*
X163498784Y-51277589D01*
X163372076Y-51096630D01*
X163215870Y-50940424D01*
X163215866Y-50940421D01*
X163215865Y-50940420D01*
X163034916Y-50813718D01*
X163034912Y-50813716D01*
X163034910Y-50813715D01*
X162834700Y-50720356D01*
X162834697Y-50720355D01*
X162834695Y-50720354D01*
X162621320Y-50663180D01*
X162621312Y-50663179D01*
X162401252Y-50643927D01*
X162401248Y-50643927D01*
X162181187Y-50663179D01*
X162181179Y-50663180D01*
X161967804Y-50720354D01*
X161967798Y-50720357D01*
X161767590Y-50813715D01*
X161767588Y-50813716D01*
X161586627Y-50940425D01*
X161430425Y-51096627D01*
X161303716Y-51277588D01*
X161303715Y-51277590D01*
X161210357Y-51477798D01*
X161210354Y-51477804D01*
X161153180Y-51691179D01*
X161153179Y-51691187D01*
X161133927Y-51911247D01*
X161133927Y-51911252D01*
X161153179Y-52131312D01*
X161153180Y-52131320D01*
X161210354Y-52344695D01*
X161210355Y-52344697D01*
X161210356Y-52344700D01*
X161303716Y-52544912D01*
X161303718Y-52544916D01*
X161430420Y-52725865D01*
X161430425Y-52725871D01*
X161586628Y-52882074D01*
X161586634Y-52882079D01*
X161767583Y-53008781D01*
X161767585Y-53008782D01*
X161767588Y-53008784D01*
X161896439Y-53068868D01*
X161897031Y-53069144D01*
X161949470Y-53115316D01*
X161968622Y-53182510D01*
X161948406Y-53249391D01*
X161897031Y-53293908D01*
X161767840Y-53354151D01*
X161703061Y-53399508D01*
X162317156Y-54013602D01*
X162229679Y-54037042D01*
X162128320Y-54095561D01*
X162045561Y-54178320D01*
X161987042Y-54279679D01*
X161963602Y-54367155D01*
X161349508Y-53753061D01*
X161304151Y-53817840D01*
X161210829Y-54017970D01*
X161210825Y-54017979D01*
X161153676Y-54231263D01*
X161153674Y-54231273D01*
X161134429Y-54451249D01*
X161134429Y-54451250D01*
X161153674Y-54671226D01*
X161153676Y-54671236D01*
X161210825Y-54884520D01*
X161210830Y-54884534D01*
X161304148Y-55084655D01*
X161304151Y-55084661D01*
X161349508Y-55149437D01*
X161349508Y-55149438D01*
X161963602Y-54535344D01*
X161987042Y-54622821D01*
X162045561Y-54724180D01*
X162128320Y-54806939D01*
X162229679Y-54865458D01*
X162317155Y-54888897D01*
X161703060Y-55502990D01*
X161767839Y-55548348D01*
X161897031Y-55608592D01*
X161949470Y-55654764D01*
X161968622Y-55721958D01*
X161948406Y-55788839D01*
X161897031Y-55833356D01*
X161767590Y-55893715D01*
X161767588Y-55893716D01*
X161586627Y-56020425D01*
X161430425Y-56176627D01*
X161303716Y-56357588D01*
X161303715Y-56357590D01*
X161210357Y-56557798D01*
X161210354Y-56557804D01*
X161153180Y-56771179D01*
X161153179Y-56771187D01*
X161133927Y-56991247D01*
X161133927Y-56991252D01*
X161153179Y-57211312D01*
X161153180Y-57211320D01*
X161210354Y-57424695D01*
X161210355Y-57424697D01*
X161210356Y-57424700D01*
X161303716Y-57624912D01*
X161303718Y-57624916D01*
X161430420Y-57805865D01*
X161430425Y-57805871D01*
X161586628Y-57962074D01*
X161586634Y-57962079D01*
X161767583Y-58088781D01*
X161767585Y-58088782D01*
X161767588Y-58088784D01*
X161886998Y-58144465D01*
X161896439Y-58148868D01*
X161948878Y-58195040D01*
X161968030Y-58262234D01*
X161947814Y-58329115D01*
X161896439Y-58373632D01*
X161767590Y-58433715D01*
X161767588Y-58433716D01*
X161586627Y-58560425D01*
X161430425Y-58716627D01*
X161303716Y-58897588D01*
X161303715Y-58897590D01*
X161210357Y-59097798D01*
X161210354Y-59097804D01*
X161153180Y-59311179D01*
X161153179Y-59311187D01*
X161133927Y-59531247D01*
X161133927Y-59531252D01*
X161153179Y-59751312D01*
X161153180Y-59751320D01*
X161210354Y-59964695D01*
X161210355Y-59964697D01*
X161210356Y-59964700D01*
X161303716Y-60164912D01*
X161303718Y-60164916D01*
X161430420Y-60345865D01*
X161430425Y-60345871D01*
X161586628Y-60502074D01*
X161586634Y-60502079D01*
X161767583Y-60628781D01*
X161767585Y-60628782D01*
X161767588Y-60628784D01*
X161886998Y-60684465D01*
X161896439Y-60688868D01*
X161948878Y-60735040D01*
X161968030Y-60802234D01*
X161947814Y-60869115D01*
X161896439Y-60913632D01*
X161767590Y-60973715D01*
X161767588Y-60973716D01*
X161586627Y-61100425D01*
X161430425Y-61256627D01*
X161303716Y-61437588D01*
X161303715Y-61437590D01*
X161210357Y-61637798D01*
X161210354Y-61637804D01*
X161153180Y-61851179D01*
X161153179Y-61851187D01*
X161133927Y-62071247D01*
X161133927Y-62071251D01*
X161151145Y-62268055D01*
X161137378Y-62336555D01*
X161115298Y-62366543D01*
X158955887Y-64525954D01*
X158911822Y-64591902D01*
X158882709Y-64635475D01*
X158880953Y-64638102D01*
X158879223Y-64640691D01*
X158879222Y-64640693D01*
X158826421Y-64768167D01*
X158826418Y-64768177D01*
X158799500Y-64903504D01*
X158799500Y-68509480D01*
X158779815Y-68576519D01*
X158727011Y-68622274D01*
X158657853Y-68632218D01*
X158594297Y-68603193D01*
X158587819Y-68597161D01*
X157946545Y-67955887D01*
X157831807Y-67879222D01*
X157704332Y-67826421D01*
X157704322Y-67826418D01*
X157568996Y-67799500D01*
X157568994Y-67799500D01*
X157568993Y-67799500D01*
X156068993Y-67799500D01*
X152068994Y-67799500D01*
X151931006Y-67799500D01*
X151931004Y-67799500D01*
X151795677Y-67826418D01*
X151795667Y-67826421D01*
X151668192Y-67879222D01*
X151553454Y-67955887D01*
X150455887Y-69053454D01*
X150410906Y-69120775D01*
X150395065Y-69144482D01*
X150379225Y-69168188D01*
X150379221Y-69168195D01*
X150326421Y-69295667D01*
X150326418Y-69295677D01*
X150299500Y-69431004D01*
X150299500Y-72074507D01*
X150280494Y-72140478D01*
X150274209Y-72150479D01*
X150214633Y-72320737D01*
X150214630Y-72320750D01*
X150194435Y-72499996D01*
X150194435Y-72500003D01*
X150214630Y-72679249D01*
X150214631Y-72679254D01*
X150274211Y-72849523D01*
X150341045Y-72955888D01*
X150370184Y-73002262D01*
X150497738Y-73129816D01*
X150650478Y-73225789D01*
X150820745Y-73285368D01*
X150820750Y-73285369D01*
X150999996Y-73305565D01*
X151000000Y-73305565D01*
X151000004Y-73305565D01*
X151179249Y-73285369D01*
X151179252Y-73285368D01*
X151179255Y-73285368D01*
X151349522Y-73225789D01*
X151502262Y-73129816D01*
X151629816Y-73002262D01*
X151725789Y-72849522D01*
X151785368Y-72679255D01*
X151805565Y-72500000D01*
X151785368Y-72320745D01*
X151785367Y-72320743D01*
X151785366Y-72320737D01*
X151725790Y-72150479D01*
X151719506Y-72140478D01*
X151700500Y-72074507D01*
X151700500Y-69841519D01*
X151720185Y-69774480D01*
X151736819Y-69753838D01*
X152253838Y-69236819D01*
X152315161Y-69203334D01*
X152341519Y-69200500D01*
X155931007Y-69200500D01*
X157158481Y-69200500D01*
X157225520Y-69220185D01*
X157246162Y-69236819D01*
X157622253Y-69612910D01*
X157655738Y-69674233D01*
X157650754Y-69743925D01*
X157608882Y-69799858D01*
X157600545Y-69805584D01*
X157497740Y-69870182D01*
X157497737Y-69870184D01*
X157370184Y-69997737D01*
X157274211Y-70150476D01*
X157214631Y-70320745D01*
X157214630Y-70320750D01*
X157194435Y-70499996D01*
X157194435Y-70500003D01*
X157214630Y-70679249D01*
X157214631Y-70679254D01*
X157274211Y-70849523D01*
X157331495Y-70940689D01*
X157370184Y-71002262D01*
X157497738Y-71129816D01*
X157554504Y-71165484D01*
X157650477Y-71225789D01*
X157682000Y-71236819D01*
X157716453Y-71248874D01*
X157773230Y-71289595D01*
X157798978Y-71354547D01*
X157799500Y-71365916D01*
X157799500Y-73574507D01*
X157780494Y-73640478D01*
X157774209Y-73650479D01*
X157714633Y-73820737D01*
X157714630Y-73820750D01*
X157694435Y-73999996D01*
X157694435Y-74000003D01*
X157714630Y-74179249D01*
X157714631Y-74179254D01*
X157774211Y-74349523D01*
X157810795Y-74407745D01*
X157870184Y-74502262D01*
X157997738Y-74629816D01*
X158043358Y-74658481D01*
X158123169Y-74708630D01*
X158150478Y-74725789D01*
X158288860Y-74774211D01*
X158320745Y-74785368D01*
X158320750Y-74785369D01*
X158499996Y-74805565D01*
X158500000Y-74805565D01*
X158500004Y-74805565D01*
X158661617Y-74787356D01*
X158730439Y-74799411D01*
X158781818Y-74846760D01*
X158799500Y-74910576D01*
X158799500Y-75374507D01*
X158780494Y-75440478D01*
X158774211Y-75450476D01*
X158714630Y-75620750D01*
X158706898Y-75689383D01*
X158679832Y-75753797D01*
X158622237Y-75793352D01*
X158583678Y-75799500D01*
X149824500Y-75799500D01*
X149757461Y-75779815D01*
X149711706Y-75727011D01*
X149700500Y-75675500D01*
X149700500Y-63841004D01*
X149673580Y-63705672D01*
X149672296Y-63702574D01*
X149672287Y-63702551D01*
X149620778Y-63578196D01*
X149620777Y-63578195D01*
X149620775Y-63578189D01*
X149544114Y-63463457D01*
X149544112Y-63463454D01*
X149544111Y-63463453D01*
X148447201Y-62366544D01*
X148413716Y-62305221D01*
X148411354Y-62268062D01*
X148428573Y-62071250D01*
X148409320Y-61851182D01*
X148352144Y-61637800D01*
X148258784Y-61437589D01*
X148132076Y-61256630D01*
X147975870Y-61100424D01*
X147975866Y-61100421D01*
X147975865Y-61100420D01*
X147794916Y-60973718D01*
X147794908Y-60973714D01*
X147666061Y-60913632D01*
X147613621Y-60867460D01*
X147594469Y-60800267D01*
X147614685Y-60733385D01*
X147666061Y-60688868D01*
X147672052Y-60686074D01*
X147794912Y-60628784D01*
X147975870Y-60502076D01*
X148132076Y-60345870D01*
X148258784Y-60164912D01*
X148352144Y-59964700D01*
X148409320Y-59751318D01*
X148428573Y-59531250D01*
X148409320Y-59311182D01*
X148352144Y-59097800D01*
X148258784Y-58897589D01*
X148132076Y-58716630D01*
X147975870Y-58560424D01*
X147975866Y-58560421D01*
X147975865Y-58560420D01*
X147794916Y-58433718D01*
X147794908Y-58433714D01*
X147666061Y-58373632D01*
X147613621Y-58327460D01*
X147594469Y-58260267D01*
X147614685Y-58193385D01*
X147666061Y-58148868D01*
X147672052Y-58146074D01*
X147794912Y-58088784D01*
X147975870Y-57962076D01*
X148132076Y-57805870D01*
X148258784Y-57624912D01*
X148352144Y-57424700D01*
X148409320Y-57211318D01*
X148428573Y-56991250D01*
X148409320Y-56771182D01*
X148352144Y-56557800D01*
X148258784Y-56357589D01*
X148132076Y-56176630D01*
X147975870Y-56020424D01*
X147975866Y-56020421D01*
X147975865Y-56020420D01*
X147794916Y-55893718D01*
X147794908Y-55893714D01*
X147666061Y-55833632D01*
X147613621Y-55787460D01*
X147594469Y-55720267D01*
X147614685Y-55653385D01*
X147666061Y-55608868D01*
X147672052Y-55606074D01*
X147794912Y-55548784D01*
X147975870Y-55422076D01*
X148132076Y-55265870D01*
X148258784Y-55084912D01*
X148352144Y-54884700D01*
X148409320Y-54671318D01*
X148428573Y-54451250D01*
X148409320Y-54231182D01*
X148352144Y-54017800D01*
X148258784Y-53817589D01*
X148132076Y-53636630D01*
X147975870Y-53480424D01*
X147975866Y-53480421D01*
X147975865Y-53480420D01*
X147794916Y-53353718D01*
X147794908Y-53353714D01*
X147666061Y-53293632D01*
X147613621Y-53247460D01*
X147594469Y-53180267D01*
X147614685Y-53113385D01*
X147666061Y-53068868D01*
X147672052Y-53066074D01*
X147794912Y-53008784D01*
X147975870Y-52882076D01*
X148132076Y-52725870D01*
X148258784Y-52544912D01*
X148352144Y-52344700D01*
X148409320Y-52131318D01*
X148428573Y-51911250D01*
X148409320Y-51691182D01*
X148352144Y-51477800D01*
X148258784Y-51277589D01*
X148132076Y-51096630D01*
X147975870Y-50940424D01*
X147975866Y-50940421D01*
X147975865Y-50940420D01*
X147794916Y-50813718D01*
X147794912Y-50813716D01*
X147794910Y-50813715D01*
X147594700Y-50720356D01*
X147594697Y-50720355D01*
X147594695Y-50720354D01*
X147381320Y-50663180D01*
X147381312Y-50663179D01*
X147161252Y-50643927D01*
X147161248Y-50643927D01*
X146941187Y-50663179D01*
X146941179Y-50663180D01*
X146727804Y-50720354D01*
X146727798Y-50720357D01*
X146527590Y-50813715D01*
X146527588Y-50813716D01*
X146346627Y-50940425D01*
X146190425Y-51096627D01*
X146063716Y-51277588D01*
X146063715Y-51277590D01*
X145970357Y-51477798D01*
X145970354Y-51477804D01*
X145913180Y-51691179D01*
X145913179Y-51691187D01*
X145893927Y-51911247D01*
X145893927Y-51911252D01*
X145913179Y-52131312D01*
X145913180Y-52131320D01*
X145970354Y-52344695D01*
X145970355Y-52344697D01*
X145970356Y-52344700D01*
X146063716Y-52544912D01*
X146063718Y-52544916D01*
X146190420Y-52725865D01*
X146190425Y-52725871D01*
X146346628Y-52882074D01*
X146346634Y-52882079D01*
X146527583Y-53008781D01*
X146527585Y-53008782D01*
X146527588Y-53008784D01*
X146646998Y-53064465D01*
X146656439Y-53068868D01*
X146708878Y-53115040D01*
X146728030Y-53182234D01*
X146707814Y-53249115D01*
X146656439Y-53293632D01*
X146527590Y-53353715D01*
X146527588Y-53353716D01*
X146346627Y-53480425D01*
X146190425Y-53636627D01*
X146063716Y-53817588D01*
X146063715Y-53817590D01*
X145970357Y-54017798D01*
X145970354Y-54017804D01*
X145913180Y-54231179D01*
X145913179Y-54231187D01*
X145893927Y-54451247D01*
X145893927Y-54451252D01*
X145913179Y-54671312D01*
X145913180Y-54671320D01*
X145970354Y-54884695D01*
X145970355Y-54884697D01*
X145970356Y-54884700D01*
X145974817Y-54894266D01*
X146063716Y-55084912D01*
X146063718Y-55084916D01*
X146190420Y-55265865D01*
X146190425Y-55265871D01*
X146346628Y-55422074D01*
X146346634Y-55422079D01*
X146527583Y-55548781D01*
X146527585Y-55548782D01*
X146527588Y-55548784D01*
X146646998Y-55604465D01*
X146656439Y-55608868D01*
X146708878Y-55655040D01*
X146728030Y-55722234D01*
X146707814Y-55789115D01*
X146656439Y-55833632D01*
X146527590Y-55893715D01*
X146527588Y-55893716D01*
X146346627Y-56020425D01*
X146190425Y-56176627D01*
X146063716Y-56357588D01*
X146063715Y-56357590D01*
X145970357Y-56557798D01*
X145970354Y-56557804D01*
X145913180Y-56771179D01*
X145913179Y-56771187D01*
X145893927Y-56991247D01*
X145893927Y-56991252D01*
X145913179Y-57211312D01*
X145913180Y-57211320D01*
X145970354Y-57424695D01*
X145970355Y-57424697D01*
X145970356Y-57424700D01*
X146063716Y-57624912D01*
X146063718Y-57624916D01*
X146190420Y-57805865D01*
X146190425Y-57805871D01*
X146346628Y-57962074D01*
X146346634Y-57962079D01*
X146527583Y-58088781D01*
X146527585Y-58088782D01*
X146527588Y-58088784D01*
X146646998Y-58144465D01*
X146656439Y-58148868D01*
X146708878Y-58195040D01*
X146728030Y-58262234D01*
X146707814Y-58329115D01*
X146656439Y-58373632D01*
X146527590Y-58433715D01*
X146527588Y-58433716D01*
X146346627Y-58560425D01*
X146190425Y-58716627D01*
X146063716Y-58897588D01*
X146063715Y-58897590D01*
X145970357Y-59097798D01*
X145970354Y-59097804D01*
X145913180Y-59311179D01*
X145913179Y-59311187D01*
X145893927Y-59531247D01*
X145893927Y-59531252D01*
X145913179Y-59751312D01*
X145913180Y-59751320D01*
X145970354Y-59964695D01*
X145970355Y-59964697D01*
X145970356Y-59964700D01*
X146063716Y-60164912D01*
X146063718Y-60164916D01*
X146190420Y-60345865D01*
X146190425Y-60345871D01*
X146346628Y-60502074D01*
X146346634Y-60502079D01*
X146527583Y-60628781D01*
X146527585Y-60628782D01*
X146527588Y-60628784D01*
X146646998Y-60684465D01*
X146656439Y-60688868D01*
X146708878Y-60735040D01*
X146728030Y-60802234D01*
X146707814Y-60869115D01*
X146656439Y-60913632D01*
X146527590Y-60973715D01*
X146527588Y-60973716D01*
X146346627Y-61100425D01*
X146190425Y-61256627D01*
X146063716Y-61437588D01*
X146063715Y-61437590D01*
X145970357Y-61637798D01*
X145970354Y-61637804D01*
X145913180Y-61851179D01*
X145913179Y-61851187D01*
X145893927Y-62071247D01*
X145893927Y-62071252D01*
X145913179Y-62291312D01*
X145913180Y-62291320D01*
X145970354Y-62504695D01*
X145970355Y-62504697D01*
X145970356Y-62504700D01*
X146063716Y-62704912D01*
X146063718Y-62704916D01*
X146190420Y-62885865D01*
X146190425Y-62885871D01*
X146346628Y-63042074D01*
X146346634Y-63042079D01*
X146527583Y-63168781D01*
X146527585Y-63168782D01*
X146527588Y-63168784D01*
X146646998Y-63224465D01*
X146656439Y-63228868D01*
X146708878Y-63275040D01*
X146728030Y-63342234D01*
X146707814Y-63409115D01*
X146656439Y-63453632D01*
X146527590Y-63513715D01*
X146527588Y-63513716D01*
X146346627Y-63640425D01*
X146190425Y-63796627D01*
X146063716Y-63977588D01*
X146063715Y-63977590D01*
X145970357Y-64177798D01*
X145970354Y-64177804D01*
X145913180Y-64391179D01*
X145913179Y-64391187D01*
X145893927Y-64611247D01*
X145893927Y-64611251D01*
X145911145Y-64808055D01*
X145897378Y-64876555D01*
X145875298Y-64906543D01*
X139955887Y-70825954D01*
X139879223Y-70940692D01*
X139826421Y-71068168D01*
X139826418Y-71068180D01*
X139815956Y-71120776D01*
X139815956Y-71120777D01*
X139799500Y-71203504D01*
X139799500Y-77254789D01*
X139779815Y-77321828D01*
X139727011Y-77367583D01*
X139657853Y-77377527D01*
X139594297Y-77348502D01*
X139573324Y-77323768D01*
X139572954Y-77324038D01*
X139570088Y-77320093D01*
X139498965Y-77236819D01*
X139406474Y-77128526D01*
X139258638Y-77002262D01*
X139214906Y-76964911D01*
X139214903Y-76964910D01*
X139000109Y-76833283D01*
X138767360Y-76736876D01*
X138522401Y-76678067D01*
X138271250Y-76658301D01*
X138020098Y-76678067D01*
X137775139Y-76736876D01*
X137542390Y-76833283D01*
X137327596Y-76964910D01*
X137327593Y-76964911D01*
X137136026Y-77128526D01*
X136972411Y-77320093D01*
X136972410Y-77320096D01*
X136859689Y-77504040D01*
X136807877Y-77550915D01*
X136753962Y-77563250D01*
X130667253Y-77563250D01*
X130558840Y-77584815D01*
X130558839Y-77584815D01*
X130545381Y-77587492D01*
X130531923Y-77590169D01*
X130494580Y-77605637D01*
X130404442Y-77642973D01*
X130366704Y-77668189D01*
X130289704Y-77719637D01*
X128455887Y-79553454D01*
X128379222Y-79668192D01*
X128326421Y-79795667D01*
X128326418Y-79795679D01*
X128302221Y-79917326D01*
X128299500Y-79931005D01*
X128299500Y-79931007D01*
X128299500Y-96931006D01*
X128299500Y-96931007D01*
X128299500Y-114431006D01*
X128299500Y-114568994D01*
X128299500Y-114568996D01*
X128299499Y-114568996D01*
X119563000Y-114568996D01*
X119563000Y-53378711D01*
X121149500Y-53378711D01*
X121149500Y-53621288D01*
X121181161Y-53861785D01*
X121243947Y-54096104D01*
X121299932Y-54231263D01*
X121336776Y-54320212D01*
X121458064Y-54530289D01*
X121458066Y-54530292D01*
X121458067Y-54530293D01*
X121605733Y-54722736D01*
X121605739Y-54722743D01*
X121777256Y-54894260D01*
X121777262Y-54894265D01*
X121969711Y-55041936D01*
X122179788Y-55163224D01*
X122403900Y-55256054D01*
X122638211Y-55318838D01*
X122818586Y-55342584D01*
X122878711Y-55350500D01*
X122878712Y-55350500D01*
X123121289Y-55350500D01*
X123169388Y-55344167D01*
X123361789Y-55318838D01*
X123596100Y-55256054D01*
X123820212Y-55163224D01*
X124030289Y-55041936D01*
X124222738Y-54894265D01*
X124394265Y-54722738D01*
X124541936Y-54530289D01*
X124663224Y-54320212D01*
X124756054Y-54096100D01*
X124818838Y-53861789D01*
X124850500Y-53621288D01*
X124850500Y-53378712D01*
X124818838Y-53138211D01*
X124756054Y-52903900D01*
X124663224Y-52679788D01*
X124541936Y-52469711D01*
X124394265Y-52277262D01*
X124394260Y-52277256D01*
X124222743Y-52105739D01*
X124222736Y-52105733D01*
X124030293Y-51958067D01*
X124030292Y-51958066D01*
X124030289Y-51958064D01*
X123820212Y-51836776D01*
X123820205Y-51836773D01*
X123596104Y-51743947D01*
X123399184Y-51691182D01*
X123361789Y-51681162D01*
X123361788Y-51681161D01*
X123361785Y-51681161D01*
X123121289Y-51649500D01*
X123121288Y-51649500D01*
X122878712Y-51649500D01*
X122878711Y-51649500D01*
X122638214Y-51681161D01*
X122403895Y-51743947D01*
X122179794Y-51836773D01*
X122179785Y-51836777D01*
X121969706Y-51958067D01*
X121777263Y-52105733D01*
X121777256Y-52105739D01*
X121605739Y-52277256D01*
X121605733Y-52277263D01*
X121458067Y-52469706D01*
X121336777Y-52679785D01*
X121336773Y-52679794D01*
X121243947Y-52903895D01*
X121181161Y-53138214D01*
X121149500Y-53378711D01*
X119563000Y-53378711D01*
X119563000Y-50130250D01*
X119582685Y-50063211D01*
X119635489Y-50017456D01*
X119687000Y-50006250D01*
X189875500Y-50006250D01*
X189942539Y-50025935D01*
G37*
%TD.AperFunction*%
%TD*%
M02*
